<?xml version="1.0" encoding="utf-8"?>
<!-- Generator: Adobe Illustrator 16.0.0, SVG Export Plug-In . SVG Version: 6.00 Build 0)  -->
<!DOCTYPE svg PUBLIC "-//W3C//DTD SVG 1.1//EN" "http://www.w3.org/Graphics/SVG/1.1/DTD/svg11.dtd">
<svg version="1.1" id="Layer_1" xmlns="http://www.w3.org/2000/svg" xmlns:xlink="http://www.w3.org/1999/xlink" x="0px" y="0px"
	 width="74.166px" height="56.416px" viewBox="-2.833 -10.583 74.166 56.416" enable-background="new -2.833 -10.583 74.166 56.416"
	 xml:space="preserve">
<g>
	<path fill="#FFFFFF" d="M45.894,32.831c-0.013-1.176,0.12-2.149,0.342-3.109c0.162-0.703,0.4-1.383,0.704-2.029
		c0.316-0.677,0.698-1.314,1.139-1.919c0.389-0.528,0.816-1.021,1.277-1.483c0.34-0.347,0.703-0.67,1.091-0.972
		c0.313-0.243,0.632-0.476,0.962-0.688c0.606-0.402,1.258-0.727,1.937-0.996c1.118-0.443,2.284-0.694,3.489-0.759
		c0.293-0.018,0.586-0.045,0.879-0.04c0.94,0.01,1.873,0.099,2.795,0.312c0.963,0.226,1.881,0.571,2.752,1.042
		c0.804,0.438,1.541,0.962,2.225,1.575c0.581,0.525,1.122,1.09,1.604,1.706c0.334,0.426,0.641,0.878,0.91,1.349
		c0.465,0.803,0.814,1.646,1.065,2.536c0.173,0.619,0.278,1.257,0.354,1.896c0.06,0.477,0.088,0.953,0.088,1.434
		c0,0.456-0.033,0.914-0.09,1.373c-0.063,0.466-0.121,0.932-0.228,1.393c-0.224,0.952-0.556,1.865-1.021,2.727
		c-0.354,0.646-0.764,1.259-1.232,1.826c-0.363,0.445-0.744,0.865-1.165,1.256c-0.483,0.451-0.987,0.871-1.539,1.242
		c-0.454,0.304-0.923,0.578-1.411,0.815c-0.408,0.203-0.837,0.377-1.271,0.521c-0.641,0.215-1.291,0.363-1.954,0.461
		c-0.649,0.104-1.302,0.154-1.954,0.149c-0.605-0.005-1.211-0.04-1.811-0.146c-0.4-0.07-0.801-0.131-1.192-0.233
		c-0.472-0.128-0.935-0.269-1.386-0.452c-0.601-0.244-1.168-0.544-1.721-0.878c-0.433-0.266-0.846-0.562-1.229-0.89
		c-0.291-0.254-0.581-0.508-0.859-0.776c-0.619-0.601-1.184-1.256-1.66-1.983c-0.269-0.418-0.521-0.84-0.74-1.291
		c-0.226-0.453-0.412-0.92-0.568-1.4c-0.227-0.695-0.367-1.404-0.471-2.126C45.928,33.726,45.905,33.188,45.894,32.831
		 M57.715,25.918c-0.479,0-0.95,0.041-1.426,0.135c-0.83,0.166-1.597,0.484-2.299,0.964c-0.648,0.44-1.215,0.979-1.691,1.604
		c-0.389,0.508-0.697,1.063-0.918,1.66c-0.18,0.493-0.312,1-0.365,1.526c-0.059,0.599-0.055,1.192,0.02,1.788
		c0.043,0.361,0.131,0.703,0.231,1.052c0.114,0.418,0.295,0.813,0.503,1.19c0.135,0.25,0.299,0.479,0.457,0.718
		c0.232,0.349,0.516,0.649,0.818,0.933c0.267,0.252,0.55,0.489,0.848,0.706c0.318,0.229,0.665,0.425,1.025,0.584
		c0.483,0.216,0.98,0.372,1.498,0.474c0.354,0.063,0.711,0.098,1.069,0.104c0.726,0.018,1.433-0.051,2.127-0.257
		c0.772-0.231,1.485-0.581,2.126-1.084c0.531-0.413,1.004-0.884,1.406-1.425c0.35-0.471,0.637-0.975,0.842-1.518
		c0.262-0.681,0.406-1.393,0.43-2.125c0.017-0.369,0-0.736-0.035-1.104c-0.063-0.59-0.202-1.162-0.42-1.711
		c-0.242-0.61-0.58-1.17-0.992-1.682c-0.227-0.279-0.469-0.545-0.735-0.781c-0.385-0.342-0.791-0.654-1.246-0.91
		c-0.37-0.211-0.749-0.389-1.151-0.518C59.147,26.025,58.444,25.909,57.715,25.918"/>
	<path fill="#FFFFFF" d="M41.459,22.907c-0.701-0.006-1.396-0.055-2.094-0.121c-0.467-0.043-0.933-0.093-1.398-0.154
		c-0.575-0.075-1.146-0.164-1.721-0.246c-0.72-0.104-1.439-0.211-2.157-0.314c-0.582-0.083-1.164-0.163-1.749-0.237
		c-0.657-0.09-1.315-0.167-1.969-0.26c-0.968-0.133-1.933-0.276-2.898-0.412c-0.456-0.063-0.912-0.119-1.367-0.18
		c-0.464-0.062-0.93-0.129-1.393-0.195c-0.474-0.068-0.948-0.13-1.421-0.199c-0.445-0.064-0.891-0.123-1.337-0.196
		c-0.271-0.045-0.532-0.129-0.776-0.267c-0.247-0.143-0.438-0.333-0.612-0.547c-0.253-0.319-0.475-0.656-0.686-0.998
		c-0.133-0.215-0.264-0.424-0.39-0.64c-0.141-0.241-0.073-0.524,0.161-0.671c0.165-0.107,0.329-0.201,0.494-0.301
		c0.526-0.307,1.046-0.612,1.571-0.919c0.105-0.06,0.213-0.113,0.322-0.161c0.694-0.292,1.418-0.386,2.163-0.257
		c0.2,0.031,0.396,0.083,0.592,0.138c0.568,0.149,1.133,0.312,1.701,0.468c0.514,0.14,1.028,0.283,1.541,0.423
		c0.823,0.23,1.648,0.459,2.472,0.685c0.843,0.234,1.683,0.465,2.524,0.698c0.932,0.26,1.862,0.522,2.792,0.779
		c0.654,0.182,1.313,0.355,1.968,0.534c0.906,0.244,1.811,0.491,2.715,0.739c0.853,0.233,1.701,0.466,2.556,0.703
		c0.833,0.228,1.665,0.454,2.5,0.684c0.595,0.164,1.185,0.333,1.781,0.496c0.04,0.014,0.09,0.023,0.126,0.047
		c0.027,0.019,0.051,0.062,0.048,0.086c-0.005,0.029-0.037,0.065-0.062,0.075c-0.099,0.029-0.199,0.055-0.299,0.07
		c-0.311,0.048-0.619,0.088-0.93,0.134c-0.555,0.077-1.107,0.153-1.665,0.237c-0.894,0.129-1.789,0.229-2.69,0.277
		C41.736,22.913,41.596,22.907,41.459,22.907"/>
	<path fill="#FFFFFF" d="M31.198,26.223c-0.458,0.018-0.92,0.029-1.378,0.043c-0.451,0.016-0.903,0.021-1.354,0.029
		c-0.697,0.019-1.397,0.039-2.094,0.055c-0.702,0.02-1.398,0.035-2.097,0.052c-0.964,0.019-1.933,0.034-2.898,0.058
		c-0.283,0.004-0.568,0.021-0.855,0.022c-0.391,0-0.764-0.088-1.109-0.28c-0.238-0.134-0.422-0.328-0.613-0.514
		c-0.407-0.4-0.772-0.836-1.141-1.271c-0.124-0.148-0.111-0.437,0.03-0.582c0.1-0.106,0.211-0.205,0.326-0.299
		c0.355-0.293,0.711-0.582,1.067-0.871c0.145-0.119,0.275-0.244,0.418-0.359c0.703-0.572,1.508-0.868,2.414-0.877
		c0.491-0.006,0.971,0.052,1.457,0.125c0.21,0.027,0.419,0.052,0.629,0.072c0.594,0.062,1.19,0.118,1.783,0.183
		c0.585,0.063,1.169,0.133,1.753,0.202c0.377,0.04,0.752,0.079,1.127,0.119c0.511,0.054,1.022,0.114,1.534,0.167
		c0.779,0.082,1.557,0.162,2.334,0.242c0.639,0.07,1.279,0.146,1.921,0.213c0.438,0.047,0.876,0.092,1.316,0.142
		c0.667,0.071,1.335,0.149,1.999,0.219c0.396,0.043,0.79,0.08,1.183,0.123c0.648,0.067,1.299,0.144,1.947,0.21
		c0.466,0.049,0.936,0.085,1.4,0.139c0.563,0.061,1.132,0.129,1.697,0.189c0.486,0.055,0.971,0.1,1.455,0.152
		c0.164,0.018,0.327,0.049,0.492,0.072c0.047,0.01,0.098,0.039,0.088,0.088c-0.006,0.035-0.051,0.086-0.08,0.097
		c-0.225,0.087-0.447,0.172-0.675,0.241c-0.731,0.224-1.459,0.445-2.19,0.662c-0.644,0.194-1.283,0.394-1.938,0.554
		c-0.609,0.155-1.225,0.243-1.846,0.306c-0.694,0.074-1.395,0.128-2.092,0.158c-0.357,0.018-0.717,0.023-1.077,0.029
		c-0.964,0.014-1.933,0.021-2.896,0.039c-0.679,0.014-1.361,0.041-2.041,0.065C31.198,26.228,31.198,26.226,31.198,26.223"/>
	<path fill="#FFFFFF" d="M47.163,20.295c-0.817,0.014-1.637,0.014-2.455-0.052c-0.422-0.033-0.838-0.119-1.252-0.196
		c-0.754-0.134-1.492-0.326-2.229-0.52c-0.837-0.224-1.664-0.469-2.493-0.704c-0.807-0.233-1.611-0.468-2.417-0.691
		c-0.822-0.23-1.647-0.454-2.473-0.684c-0.823-0.229-1.643-0.461-2.468-0.694c-0.363-0.102-0.724-0.206-1.084-0.312
		c-0.702-0.197-1.4-0.396-2.099-0.593c-0.459-0.133-0.917-0.268-1.379-0.398c-0.242-0.065-0.463-0.178-0.675-0.302
		c-0.21-0.122-0.38-0.292-0.503-0.505c-0.147-0.252-0.299-0.508-0.427-0.77c-0.156-0.321-0.299-0.651-0.436-0.983
		c-0.119-0.287-0.043-0.478,0.229-0.61c0.191-0.093,0.388-0.174,0.581-0.256c0.373-0.156,0.752-0.298,1.121-0.468
		c0.227-0.104,0.456-0.195,0.697-0.256c0.866-0.214,1.697-0.109,2.502,0.256c0.335,0.154,0.675,0.294,1.01,0.44
		c0.822,0.354,1.641,0.71,2.459,1.061c0.662,0.282,1.322,0.561,1.98,0.845c0.6,0.255,1.194,0.527,1.794,0.787
		c0.371,0.161,0.747,0.314,1.115,0.473c0.693,0.298,1.384,0.604,2.076,0.899c0.467,0.2,0.934,0.391,1.397,0.591
		c0.888,0.379,1.774,0.766,2.66,1.146c0.414,0.179,0.833,0.348,1.248,0.527c0.633,0.271,1.262,0.547,1.896,0.82
		c0.396,0.172,0.793,0.339,1.193,0.506c0.313,0.133,0.627,0.269,0.936,0.406c0.043,0.019,0.092,0.035,0.123,0.062
		c0.023,0.022,0.039,0.065,0.035,0.094c-0.008,0.027-0.043,0.069-0.07,0.073c-0.07,0.013-0.146,0.009-0.221,0.009
		c-0.697,0-1.396,0-2.096,0L47.163,20.295L47.163,20.295z"/>
	<path fill="#FFFFFF" d="M52.463,18.884c-0.4-0.054-0.801-0.117-1.201-0.164c-0.469-0.06-0.934-0.111-1.4-0.157
		c-0.751-0.072-1.499-0.189-2.23-0.364c-0.524-0.124-1.041-0.298-1.553-0.475c-0.517-0.174-1.021-0.37-1.527-0.567
		c-0.342-0.133-0.682-0.28-1.02-0.42c-0.434-0.183-0.861-0.369-1.291-0.552c-0.562-0.237-1.121-0.474-1.682-0.707
		c-0.654-0.27-1.313-0.528-1.965-0.795c-0.723-0.296-1.444-0.601-2.168-0.9c-0.398-0.162-0.8-0.318-1.201-0.485
		c-0.824-0.339-1.646-0.688-2.469-1.031c-0.516-0.214-1.032-0.435-1.549-0.656c-0.307-0.128-0.581-0.312-0.805-0.561
		c-0.069-0.075-0.122-0.165-0.17-0.251c-0.14-0.271-0.264-0.547-0.354-0.838c-0.111-0.35-0.215-0.701-0.328-1.051
		c-0.047-0.158-0.021-0.288,0.077-0.416c0.049-0.067,0.117-0.113,0.195-0.137c0.133-0.042,0.265-0.084,0.398-0.121
		c0.575-0.158,1.15-0.319,1.728-0.477c0.583-0.159,1.159-0.124,1.738,0.043c0.477,0.137,0.898,0.381,1.318,0.628
		c0.303,0.174,0.601,0.352,0.905,0.526c0.513,0.303,1.033,0.604,1.548,0.902c0.278,0.163,0.556,0.323,0.834,0.483
		c0.526,0.305,1.051,0.614,1.578,0.914c0.689,0.403,1.385,0.796,2.076,1.195c0.479,0.276,0.952,0.559,1.43,0.837
		c0.486,0.28,0.976,0.556,1.461,0.836c0.438,0.251,0.877,0.504,1.313,0.754c0.433,0.247,0.865,0.491,1.295,0.742
		c0.724,0.418,1.446,0.84,2.173,1.259c0.865,0.502,1.735,0.999,2.604,1.499c0.15,0.088,0.303,0.181,0.449,0.264
		c0.043,0.025,0.09,0.043,0.117,0.079c0.021,0.023,0.039,0.066,0.029,0.093c-0.006,0.028-0.048,0.063-0.074,0.063
		c-0.094,0.005-0.184-0.003-0.275-0.006C52.463,18.876,52.463,18.88,52.463,18.884"/>
	<path fill="#FFFFFF" d="M44.778,4.414c0.319,0,0.639-0.006,0.965,0c0.598,0.014,1.131,0.217,1.625,0.545
		c0.293,0.194,0.545,0.436,0.791,0.687c0.493,0.507,0.982,1.019,1.475,1.528c0.435,0.45,0.867,0.899,1.309,1.348
		c0.446,0.461,0.898,0.917,1.352,1.378c0.514,0.526,1.024,1.056,1.541,1.583c0.513,0.526,1.033,1.051,1.545,1.575
		c0.517,0.527,1.02,1.06,1.535,1.585c0.278,0.282,0.557,0.56,0.836,0.84c0.156,0.159,0.304,0.319,0.463,0.475
		c0.313,0.321,0.635,0.642,0.947,0.962c0.273,0.284,0.543,0.572,0.82,0.855c0.287,0.295,0.584,0.585,0.872,0.883
		c0.168,0.169,0.33,0.346,0.498,0.518c0.126,0.133,0.256,0.259,0.382,0.393c0.025,0.027,0.051,0.063,0.051,0.095
		c0,0.025-0.031,0.068-0.056,0.077c-0.032,0.01-0.071-0.003-0.104-0.02c-0.248-0.095-0.494-0.193-0.744-0.29
		c-0.463-0.185-0.918-0.374-1.381-0.56c-0.754-0.312-1.518-0.616-2.233-1.014c-0.28-0.156-0.55-0.334-0.815-0.515
		c-0.404-0.271-0.813-0.545-1.201-0.836c-0.401-0.292-0.785-0.604-1.18-0.912c-0.49-0.387-0.977-0.782-1.467-1.166
		c-0.532-0.422-1.068-0.845-1.604-1.264c-0.502-0.391-1.004-0.779-1.498-1.171c-0.422-0.328-0.842-0.657-1.264-0.985
		c-0.691-0.544-1.389-1.092-2.083-1.636c-0.526-0.417-1.056-0.83-1.579-1.248c-0.218-0.172-0.436-0.341-0.639-0.525
		c-0.303-0.271-0.516-0.594-0.576-1.008c-0.093-0.596-0.104-1.191-0.098-1.79c0.001-0.23,0.145-0.369,0.385-0.38
		c0.164-0.012,0.33-0.009,0.494-0.009C44.354,4.414,44.565,4.414,44.778,4.414L44.778,4.414z"/>
	<path fill="#FFFFFF" d="M38.754,5.316c0.455,0,0.898,0.073,1.316,0.257c0.26,0.116,0.508,0.254,0.733,0.435
		c0.591,0.468,1.181,0.94,1.771,1.411c0.674,0.533,1.354,1.07,2.032,1.606c0.468,0.368,0.938,0.741,1.405,1.11
		c0.537,0.429,1.076,0.856,1.617,1.289c0.336,0.266,0.675,0.542,1.011,0.811c0.354,0.281,0.708,0.554,1.065,0.834
		c0.367,0.287,0.735,0.576,1.104,0.865c0.702,0.551,1.4,1.105,2.1,1.657c0.508,0.4,1.004,0.802,1.508,1.203
		c0.514,0.407,1.027,0.809,1.541,1.214c0.129,0.099,0.26,0.203,0.388,0.305c0.022,0.015,0.046,0.036,0.06,0.059
		c0.01,0.023,0.02,0.061,0.006,0.079c-0.017,0.025-0.053,0.057-0.08,0.057c-0.099-0.014-0.199-0.031-0.297-0.057
		c-0.816-0.219-1.634-0.441-2.449-0.66c-0.692-0.188-1.379-0.389-2.041-0.662c-0.271-0.113-0.543-0.235-0.803-0.369
		c-0.416-0.215-0.832-0.434-1.242-0.665c-0.455-0.255-0.903-0.528-1.353-0.798c-0.481-0.287-0.964-0.578-1.44-0.866
		c-0.476-0.287-0.947-0.57-1.418-0.854c-0.229-0.137-0.459-0.275-0.688-0.409c-0.703-0.416-1.412-0.827-2.113-1.246
		c-0.736-0.436-1.47-0.875-2.203-1.314c-0.678-0.408-1.352-0.816-2.031-1.225c-0.291-0.177-0.584-0.351-0.875-0.525
		c-0.287-0.169-0.545-0.38-0.727-0.665c-0.082-0.129-0.141-0.276-0.188-0.422c-0.145-0.477-0.244-0.963-0.302-1.456
		c-0.011-0.093-0.024-0.186-0.035-0.276c-0.021-0.212,0.089-0.38,0.298-0.429c0.199-0.043,0.4-0.068,0.602-0.095
		c0.391-0.052,0.782-0.102,1.178-0.149C38.385,5.341,38.569,5.332,38.754,5.316"/>
	<path fill="#FFFFFF" d="M20.306,27.711c0.427,0.006,0.82,0.016,1.213,0.039c0.664,0.043,1.325,0.067,1.987,0.094
		c0.827,0.027,1.655,0.048,2.483,0.068c0.325,0.008,0.644,0.017,0.966,0.017c1.051,0.008,2.098,0.024,3.147,0.013
		c1.334-0.013,2.67-0.046,4-0.165c0.941-0.086,1.887-0.165,2.822-0.34c0.55-0.103,1.094-0.229,1.629-0.403
		c0.986-0.338,1.996-0.566,3.042-0.643c0.745-0.057,1.489-0.064,2.233,0c0.219,0.021,0.441,0.033,0.658,0.05
		c0.066,0.005,0.125,0.011,0.229,0.026c-0.057,0.041-0.079,0.068-0.107,0.078c-0.3,0.088-0.604,0.172-0.904,0.256
		c-0.601,0.177-1.177,0.414-1.742,0.684c-0.541,0.258-1.059,0.563-1.557,0.891c-0.514,0.342-0.998,0.723-1.479,1.105
		c-0.473,0.379-0.95,0.757-1.451,1.1c-0.525,0.367-1.118,0.605-1.759,0.688c-0.504,0.065-1.007,0.052-1.506-0.084
		c-0.365-0.101-0.715-0.231-1.068-0.371c-0.557-0.213-1.123-0.41-1.688-0.604c-0.769-0.258-1.542-0.494-2.326-0.692
		c-0.421-0.104-0.835-0.22-1.256-0.315c-0.673-0.156-1.345-0.306-2.018-0.445c-0.514-0.103-1.033-0.188-1.553-0.271
		c-0.795-0.123-1.599-0.24-2.399-0.355c-0.456-0.067-0.912-0.125-1.369-0.186c-0.044-0.005-0.093-0.005-0.132-0.021
		c-0.041-0.019-0.082-0.047-0.102-0.084C20.285,27.813,20.303,27.767,20.306,27.711"/>
	<path fill="#FFFFFF" d="M15.151,26.426c-0.47,0.119-0.913,0.074-1.352-0.061c-0.487-0.15-0.92-0.412-1.347-0.681
		c-0.465-0.3-0.932-0.595-1.395-0.894c-0.433-0.279-0.86-0.565-1.292-0.844c-0.338-0.219-0.685-0.434-1.024-0.652
		c-0.084-0.055-0.163-0.117-0.243-0.182C8.444,23.07,8.4,23.008,8.335,22.943c0.049-0.036,0.08-0.065,0.117-0.082
		c0.104-0.039,0.209-0.071,0.313-0.11c0.847-0.31,1.69-0.623,2.538-0.927c0.516-0.19,1.04-0.368,1.56-0.547
		c0.381-0.133,0.767-0.26,1.148-0.395c0.653-0.233,1.312-0.243,1.98-0.068c0.035,0.012,0.071,0.023,0.104,0.041
		c0.047,0.021,0.098,0.048,0.153,0.079c-0.051,0.149-0.156,0.255-0.249,0.364c-0.093,0.113-0.2,0.215-0.313,0.308
		c-0.374,0.298-0.755,0.59-1.132,0.881c-0.377,0.292-0.758,0.583-1.136,0.874c-0.077,0.061-0.15,0.135-0.214,0.213
		c-0.135,0.172-0.146,0.352-0.03,0.538c0.065,0.099,0.14,0.193,0.222,0.282c0.251,0.27,0.508,0.531,0.758,0.795
		c0.227,0.243,0.457,0.482,0.675,0.73c0.108,0.125,0.2,0.265,0.293,0.397C15.138,26.338,15.138,26.374,15.151,26.426"/>
	<path fill="#FFFFFF" d="M16.67,19.466c-0.294,0.061-0.561,0-0.823-0.072c-0.444-0.118-0.838-0.335-1.184-0.626
		c-0.445-0.373-0.874-0.759-1.308-1.144c-0.426-0.377-0.851-0.752-1.274-1.136c-0.444-0.398-0.881-0.803-1.323-1.205
		c-0.103-0.095-0.187-0.199-0.247-0.299c0.021-0.09,0.072-0.083,0.115-0.09c0.361-0.07,0.721-0.14,1.081-0.207
		c0.643-0.121,1.283-0.238,1.926-0.359c0.625-0.113,1.248-0.233,1.869-0.346c0.308-0.054,0.615-0.118,0.925-0.161
		c0.504-0.067,1.01-0.076,1.501,0.084c0.208,0.068,0.406,0.163,0.61,0.251c0.03,0.013,0.055,0.042,0.099,0.077
		c-0.03,0.042-0.046,0.086-0.078,0.112c-0.212,0.188-0.425,0.374-0.68,0.509c-0.668,0.352-1.326,0.721-1.986,1.08
		c-0.145,0.082-0.293,0.156-0.435,0.237c-0.074,0.041-0.147,0.082-0.21,0.131c-0.196,0.156-0.25,0.355-0.155,0.593
		c0.03,0.075,0.065,0.154,0.109,0.219c0.253,0.373,0.513,0.74,0.763,1.112c0.249,0.366,0.508,0.723,0.685,1.132
		C16.659,19.386,16.663,19.425,16.67,19.466"/>
	<path fill="#FFFFFF" d="M36.924,32.09c0.08,0,0.171,0.005,0.258,0c0.193-0.006,0.387-0.002,0.579-0.029
		c0.663-0.089,1.213-0.408,1.686-0.871c0.343-0.335,0.634-0.713,0.911-1.104c0.412-0.588,0.852-1.157,1.372-1.65
		c0.616-0.585,1.31-1.042,2.112-1.325c0.41-0.146,0.836-0.218,1.263-0.278c0.033-0.006,0.069,0.004,0.134,0.01
		c-0.041,0.055-0.064,0.093-0.091,0.121c-0.167,0.172-0.334,0.342-0.503,0.512c-0.377,0.38-0.686,0.816-0.982,1.255
		c-0.535,0.796-0.974,1.646-1.401,2.503c-0.226,0.456-0.468,0.898-0.71,1.342c-0.164,0.288-0.363,0.555-0.605,0.781
		c-0.3,0.283-0.652,0.451-1.074,0.411c-0.221-0.021-0.429-0.072-0.638-0.159c-0.481-0.195-0.914-0.471-1.34-0.761
		c-0.306-0.206-0.606-0.421-0.905-0.632C36.954,32.188,36.904,32.17,36.924,32.09"/>
	<path fill="#FFFFFF" d="M16.934,8.994c0.148-0.035,0.282-0.046,0.421-0.055c0.661-0.024,1.32-0.054,1.983-0.085
		c0.68-0.031,1.357-0.08,2.036-0.108c0.505-0.022,1.014-0.068,1.516-0.018c0.569,0.058,1.091,0.247,1.554,0.628
		c-0.035,0.045-0.061,0.093-0.102,0.122c-0.211,0.163-0.451,0.281-0.699,0.381c-0.496,0.191-1,0.377-1.496,0.566
		c-0.272,0.103-0.553,0.202-0.825,0.308c-0.095,0.037-0.187,0.08-0.271,0.136c-0.175,0.117-0.24,0.28-0.175,0.481
		c0.058,0.181,0.145,0.357,0.226,0.529c0.244,0.494,0.492,0.987,0.734,1.483c0.078,0.165,0.123,0.341,0.171,0.521
		c-0.123,0.034-0.222,0.011-0.32-0.004c-0.456-0.093-0.841-0.316-1.183-0.622c-0.177-0.158-0.346-0.33-0.504-0.508
		c-0.367-0.423-0.725-0.854-1.086-1.28c-0.303-0.359-0.605-0.719-0.91-1.076c-0.258-0.31-0.524-0.615-0.78-0.925
		c-0.09-0.103-0.164-0.224-0.24-0.341C16.962,9.093,16.952,9.048,16.934,8.994"/>
	<path fill="#FFFFFF" d="M22.458,4.254c0.086,0,0.163-0.005,0.232,0c1.202,0.083,2.404,0.167,3.605,0.26
		c0.55,0.04,1.1,0.094,1.648,0.151c0.534,0.054,1.014,0.249,1.442,0.576c0.091,0.072,0.184,0.143,0.254,0.27
		c-0.195,0.119-0.376,0.237-0.592,0.291c-0.552,0.145-1.104,0.29-1.655,0.428c-0.313,0.079-0.625,0.151-0.938,0.229
		c-0.081,0.021-0.159,0.049-0.234,0.083c-0.167,0.077-0.25,0.216-0.239,0.398c0.005,0.093,0.022,0.185,0.052,0.268
		c0.199,0.575,0.406,1.145,0.601,1.718c0.064,0.193,0.093,0.394,0.136,0.591c0.002,0.013-0.013,0.033-0.025,0.061
		c-0.175,0.007-0.334-0.065-0.488-0.138c-0.323-0.146-0.589-0.369-0.832-0.626C25.191,8.565,25.002,8.283,24.816,8
		c-0.334-0.494-0.667-0.994-0.993-1.491c-0.17-0.253-0.333-0.511-0.5-0.762c-0.161-0.247-0.324-0.49-0.481-0.741
		c-0.124-0.192-0.239-0.393-0.352-0.592C22.467,4.371,22.467,4.315,22.458,4.254"/>
	<path fill="#FFFFFF" d="M38.023-1.16c0.233,0.082,0.442,0.151,0.649,0.224c0.537,0.192,1.074,0.384,1.609,0.577
		c0.725,0.261,1.451,0.521,2.178,0.786c0.174,0.063,0.342,0.136,0.51,0.212c0.478,0.217,0.873,0.54,1.148,0.992
		c0.027,0.046,0.045,0.098,0.066,0.154c-0.242,0.107-0.482,0.148-0.732,0.141c-0.646-0.021-1.289-0.036-1.93-0.062
		c-0.128-0.002-0.259-0.01-0.386-0.018c-0.072,0-0.148-0.004-0.224,0.007c-0.264,0.031-0.389,0.163-0.406,0.431
		c-0.01,0.102,0,0.203,0.004,0.302c0.033,0.514,0.068,1.029,0.104,1.542c0.01,0.192-0.006,0.385-0.035,0.563
		c-0.063,0.059-0.121,0.035-0.162,0.004c-0.158-0.122-0.328-0.237-0.465-0.381c-0.287-0.305-0.479-0.678-0.615-1.069
		c-0.162-0.479-0.312-0.961-0.467-1.44c-0.203-0.624-0.402-1.243-0.6-1.865c-0.084-0.255-0.16-0.511-0.234-0.764
		C38.008-0.92,37.999-1.02,38.023-1.16"/>
	<path fill="#FFFFFF" d="M36.715,2.924c-0.244,0.102-0.463,0.177-0.688,0.204c-0.476,0.055-0.948,0.111-1.425,0.158
		c-0.31,0.03-0.623,0.053-0.935,0.084c-0.091,0.006-0.185,0.018-0.273,0.045c-0.216,0.061-0.318,0.201-0.315,0.427
		c0.005,0.116,0.025,0.235,0.048,0.355c0.097,0.483,0.199,0.969,0.288,1.457c0.035,0.193,0.038,0.385,0.054,0.575
		c0,0.018-0.016,0.031-0.028,0.063c-0.028,0-0.063,0.004-0.094-0.006c-0.187-0.059-0.35-0.159-0.503-0.285
		c-0.241-0.202-0.44-0.441-0.608-0.708c-0.25-0.398-0.427-0.831-0.628-1.255c-0.251-0.532-0.492-1.065-0.743-1.598
		c-0.181-0.381-0.365-0.76-0.543-1.143c-0.071-0.149-0.136-0.305-0.139-0.484c0.041-0.007,0.075-0.022,0.11-0.013
		c0.492,0.106,0.985,0.212,1.478,0.321c0.549,0.117,1.096,0.232,1.642,0.354c0.459,0.1,0.917,0.205,1.374,0.313
		c0.215,0.05,0.426,0.113,0.634,0.181C35.943,2.143,36.363,2.453,36.715,2.924"/>
	<path fill="#FFFFFF" d="M18.276,26.319c-0.054,0.018-0.076,0.034-0.105,0.036c-0.337,0.021-0.677,0.05-1.016,0.067
		c-0.142,0.006-0.272-0.037-0.383-0.127c-0.087-0.069-0.182-0.127-0.263-0.203c-0.571-0.543-1.143-1.09-1.713-1.639
		c-0.058-0.058-0.112-0.123-0.153-0.191c-0.089-0.158-0.066-0.333,0.065-0.455c0.128-0.118,0.267-0.229,0.414-0.318
		c0.41-0.271,0.793-0.57,1.161-0.891c0.41-0.352,0.817-0.709,1.233-1.06c0.57-0.479,1.218-0.574,1.916-0.36
		c0.043,0.011,0.078,0.045,0.119,0.07c-0.026,0.104-0.091,0.169-0.159,0.226c-0.216,0.176-0.424,0.353-0.64,0.525
		c-0.232,0.18-0.469,0.359-0.7,0.539c-0.38,0.291-0.761,0.578-1.138,0.875c-0.122,0.096-0.24,0.2-0.349,0.313
		c-0.133,0.138-0.149,0.282-0.051,0.45c0.051,0.088,0.116,0.166,0.186,0.24c0.245,0.262,0.495,0.519,0.743,0.775
		C17.76,25.526,18.035,25.891,18.276,26.319"/>
	<path fill="#FFFFFF" d="M19.771,19.875c-0.055,0.014-0.089,0.029-0.119,0.027c-0.269-0.018-0.533-0.038-0.797-0.066
		c-0.103-0.009-0.2-0.038-0.298-0.067c-0.157-0.038-0.282-0.126-0.381-0.256c-0.204-0.26-0.405-0.522-0.606-0.787
		c-0.314-0.416-0.633-0.833-0.948-1.252c-0.05-0.066-0.095-0.136-0.123-0.215c-0.071-0.174-0.025-0.325,0.132-0.432
		c0.123-0.081,0.253-0.149,0.383-0.215c0.287-0.144,0.583-0.277,0.865-0.429c0.288-0.159,0.569-0.335,0.851-0.509
		c0.373-0.233,0.745-0.47,1.131-0.685c0.454-0.249,0.922-0.287,1.413-0.172c0.182,0.043,0.354,0.109,0.511,0.208
		c0.022,0.013,0.036,0.038,0.059,0.066c-0.113,0.126-0.25,0.221-0.394,0.3c-0.775,0.418-1.549,0.841-2.325,1.261
		c-0.162,0.088-0.319,0.179-0.483,0.264c-0.108,0.062-0.187,0.153-0.26,0.243c-0.07,0.09-0.082,0.186-0.03,0.285
		c0.096,0.167,0.188,0.338,0.293,0.499c0.237,0.362,0.484,0.716,0.721,1.076C19.536,19.284,19.638,19.579,19.771,19.875"/>
	<path fill="#FFFFFF" d="M27.277,10.549c-0.117,0.106-0.217,0.165-0.332,0.203c-0.328,0.125-0.652,0.251-0.98,0.375
		c-0.583,0.221-1.168,0.439-1.754,0.663c-0.108,0.038-0.208,0.112-0.31,0.172c-0.118,0.075-0.146,0.187-0.118,0.314
		c0.021,0.083,0.048,0.16,0.085,0.232c0.117,0.24,0.24,0.479,0.36,0.714c0.215,0.42,0.402,0.848,0.51,1.307
		c0.01,0.036,0.012,0.072,0.019,0.126c-0.047,0.009-0.093,0.025-0.127,0.019c-0.298-0.072-0.592-0.142-0.884-0.217
		c-0.15-0.041-0.264-0.133-0.345-0.265c-0.1-0.166-0.204-0.328-0.299-0.493c-0.303-0.547-0.593-1.105-0.912-1.639
		c-0.189-0.319-0.042-0.558,0.243-0.646c0.313-0.104,0.625-0.208,0.941-0.315c0.508-0.174,0.983-0.411,1.472-0.623
		c0.286-0.125,0.579-0.238,0.874-0.337c0.221-0.08,0.456-0.075,0.681-0.021c0.261,0.057,0.513,0.154,0.737,0.301
		C27.186,10.452,27.218,10.495,27.277,10.549"/>
	<path fill="#FFFFFF" d="M32.25,6.941c-0.152,0.097-0.271,0.154-0.408,0.185c-0.724,0.174-1.444,0.355-2.168,0.537
		c-0.205,0.049-0.409,0.105-0.612,0.16c-0.018,0.001-0.035,0.009-0.053,0.013c-0.31,0.106-0.396,0.26-0.292,0.57
		c0.1,0.314,0.208,0.625,0.33,0.936c0.152,0.389,0.229,0.791,0.287,1.203c0.005,0.024-0.013,0.054-0.025,0.09
		c-0.046-0.006-0.09-0.009-0.131-0.025c-0.25-0.09-0.496-0.19-0.749-0.28c-0.145-0.052-0.252-0.151-0.322-0.285
		c-0.046-0.079-0.093-0.16-0.125-0.244c-0.271-0.644-0.534-1.292-0.796-1.937c-0.028-0.068-0.052-0.14-0.062-0.212
		c-0.025-0.202,0.044-0.316,0.235-0.38c0.115-0.038,0.231-0.066,0.349-0.081c0.666-0.104,1.303-0.308,1.946-0.506
		c0.307-0.091,0.614-0.188,0.927-0.258c0.429-0.099,0.843-0.041,1.228,0.179C31.959,6.693,32.092,6.805,32.25,6.941"/>
	<path fill="#FFFFFF" d="M46.163,3.756c-0.188,0.082-0.363,0.065-0.541,0.064c-0.396-0.01-0.791-0.025-1.187-0.037
		c-0.403-0.016-0.81-0.035-1.215-0.041c-0.125-0.004-0.253,0.014-0.382,0.039c-0.096,0.014-0.153,0.082-0.186,0.179
		c-0.037,0.124-0.042,0.25-0.033,0.381c0.033,0.414,0.068,0.825,0.077,1.239c0.009,0.237-0.032,0.477-0.054,0.714
		c-0.003,0.013-0.021,0.027-0.044,0.056c-0.036-0.018-0.075-0.031-0.11-0.056c-0.193-0.138-0.384-0.285-0.58-0.418
		c-0.176-0.119-0.256-0.284-0.281-0.484c-0.031-0.219-0.058-0.438-0.084-0.657c-0.058-0.463-0.113-0.929-0.17-1.396
		c-0.052-0.43,0.063-0.554,0.504-0.529c0.197,0.011,0.4,0.039,0.604,0.047c0.697,0.036,1.399,0,2.097-0.011
		c0.367-0.004,0.715,0.059,1.021,0.265c0.212,0.138,0.38,0.322,0.52,0.529C46.135,3.666,46.143,3.705,46.163,3.756"/>
	<path fill="#FFFFFF" d="M35.693,7.635c-0.053-0.013-0.101-0.013-0.136-0.036c-0.236-0.127-0.469-0.258-0.7-0.385
		c-0.094-0.054-0.155-0.131-0.191-0.23c-0.059-0.163-0.121-0.328-0.166-0.499c-0.14-0.558-0.276-1.121-0.412-1.684
		c-0.013-0.045-0.022-0.091-0.032-0.135c-0.04-0.195,0.025-0.385,0.314-0.423c0.2-0.025,0.402-0.035,0.605-0.038
		c0.461-0.007,0.917-0.086,1.371-0.149c0.301-0.042,0.598-0.1,0.898-0.141c0.4-0.054,0.791-0.009,1.145,0.211
		c0.195,0.122,0.365,0.275,0.508,0.477C38.852,4.631,38.82,4.67,38.78,4.679c-0.096,0.027-0.193,0.048-0.296,0.059
		c-0.688,0.065-1.374,0.128-2.063,0.194c-0.198,0.02-0.399,0.045-0.601,0.072c-0.055,0.009-0.109,0.023-0.159,0.041
		c-0.186,0.061-0.24,0.131-0.237,0.324c0,0.079,0.013,0.163,0.031,0.242c0.069,0.373,0.158,0.741,0.215,1.111
		c0.038,0.262,0.038,0.534,0.054,0.796C35.723,7.551,35.706,7.585,35.693,7.635"/>
</g>
<path fill="#FFFFFF" d="M-68.638,35.513c0-0.365-0.13-0.679-0.39-0.938c-0.259-0.259-0.572-0.388-0.937-0.388
	c-0.366,0-0.678,0.129-0.938,0.388c-0.259,0.262-0.388,0.573-0.388,0.938v3.536h-1.327v-3.536c0-0.734,0.259-1.361,0.776-1.88
	c0.517-0.516,1.143-0.774,1.877-0.774c0.734,0,1.361,0.259,1.879,0.772c0.038,0.041,0.075,0.082,0.11,0.119
	c0.036-0.037,0.074-0.078,0.115-0.119c0.516-0.516,1.142-0.772,1.875-0.772c0.734,0,1.359,0.261,1.877,0.774
	c0.517,0.519,0.776,1.146,0.776,1.88v3.536h-1.327v-3.536c0-0.365-0.129-0.679-0.388-0.938c-0.261-0.259-0.573-0.388-0.938-0.388
	c-0.365,0-0.678,0.129-0.937,0.388c-0.259,0.262-0.39,0.573-0.39,0.938v3.536h-1.326L-68.638,35.513L-68.638,35.513z"/>
<path fill="#FFFFFF" d="M-57.533,34.135c0.562,0.562,0.842,1.238,0.842,2.035s-0.281,1.476-0.842,2.037
	c-0.562,0.562-1.241,0.842-2.036,0.842c-0.796,0-1.474-0.28-2.036-0.842c-0.562-0.563-0.844-1.24-0.844-2.037
	s0.282-1.475,0.844-2.035c0.562-0.563,1.24-0.844,2.036-0.844C-58.773,33.292-58.094,33.575-57.533,34.135 M-59.569,34.525
	c-0.454,0-0.842,0.162-1.163,0.481c-0.321,0.324-0.482,0.711-0.482,1.164s0.161,0.843,0.482,1.164
	c0.321,0.32,0.708,0.482,1.163,0.482c0.455,0,0.842-0.162,1.163-0.482c0.321-0.321,0.481-0.711,0.481-1.164s-0.16-0.84-0.481-1.164
	C-58.727,34.687-59.114,34.525-59.569,34.525"/>
<polygon fill="#FFFFFF" points="-54.585,36.788 -54.585,39.049 -55.818,39.049 -55.818,33.292 -54.585,33.292 -54.585,35.551 
	-51.707,35.551 -51.707,33.292 -50.472,33.292 -50.472,39.049 -51.707,39.049 -51.707,36.788 "/>
<path fill="#FFFFFF" d="M-48.358,37.818v1.231h-1.234v-3.291c0-0.684,0.24-1.266,0.722-1.745c0.48-0.479,1.062-0.722,1.745-0.722
	c0.685,0,1.268,0.24,1.748,0.722s0.721,1.063,0.721,1.745v3.291h-1.233v-1.231H-48.358z M-45.89,36.583v-0.824
	c0-0.338-0.121-0.629-0.363-0.868c-0.241-0.242-0.532-0.365-0.872-0.365c-0.338,0-0.629,0.123-0.87,0.365
	c-0.241,0.239-0.362,0.53-0.362,0.868v0.824H-45.89z"/>
<path fill="#FFFFFF" d="M-38.842,36.583c0,0.338,0.122,0.629,0.364,0.871c0.241,0.24,0.532,0.363,0.871,0.363
	s0.629-0.123,0.871-0.363c0.241-0.242,0.362-0.533,0.362-0.871v-3.291h1.233v3.291c0,0.685-0.239,1.267-0.721,1.746
	c-0.48,0.48-1.062,0.721-1.746,0.721s-1.267-0.239-1.747-0.721c-0.036-0.039-0.071-0.076-0.105-0.111
	c-0.033,0.035-0.067,0.072-0.104,0.111c-0.479,0.48-1.061,0.721-1.745,0.721s-1.268-0.239-1.747-0.721
	c-0.48-0.479-0.721-1.063-0.721-1.746v-3.291h1.233v3.291c0,0.338,0.121,0.629,0.362,0.871c0.241,0.24,0.533,0.363,0.872,0.363
	s0.629-0.123,0.871-0.363c0.241-0.242,0.362-0.533,0.362-0.871v-3.291h1.232v3.291H-38.842z"/>
<polygon fill="#FFFFFF" points="-31.186,35.902 -29.24,39.049 -30.661,39.049 -31.968,36.947 -33.025,38.355 -33.025,39.049 
	-34.259,39.049 -34.259,33.292 -33.025,33.292 -33.025,36.299 -30.77,33.292 -29.267,33.292 -29.244,33.31 "/>
<polygon fill="#FFFFFF" points="-73.542,44.7 -75.337,44.7 -75.337,41.56 -73.604,41.56 -73.634,41.879 -74.731,41.892 
	-74.731,42.915 -73.699,42.929 -73.727,43.217 -74.731,43.243 -74.731,44.368 -73.514,44.39 "/>
<path fill="#FFFFFF" d="M-71.617,44.006c0,0.119-0.024,0.218-0.073,0.293c-0.049,0.076-0.107,0.144-0.172,0.199
	c-0.034,0.029-0.071,0.06-0.109,0.09c-0.04,0.027-0.083,0.054-0.13,0.076c-0.047,0.023-0.102,0.041-0.163,0.056
	c-0.062,0.014-0.134,0.021-0.215,0.021c-0.148,0-0.282-0.016-0.404-0.047c-0.121-0.031-0.235-0.08-0.342-0.148l0.146-0.391
	c0.046,0.027,0.095,0.057,0.146,0.09c0.05,0.035,0.104,0.066,0.163,0.094c0.059,0.029,0.119,0.056,0.183,0.072
	c0.063,0.021,0.128,0.029,0.193,0.029c0.046,0,0.087-0.002,0.125-0.01c0.037-0.008,0.068-0.02,0.094-0.037
	c0.021-0.018,0.035-0.045,0.045-0.088c0.011-0.041,0.015-0.092,0.015-0.15c0-0.068-0.026-0.123-0.077-0.162
	c-0.05-0.041-0.115-0.074-0.192-0.104c-0.077-0.031-0.16-0.061-0.25-0.09c-0.088-0.029-0.17-0.066-0.248-0.117
	c-0.077-0.049-0.142-0.111-0.192-0.188c-0.052-0.076-0.078-0.177-0.078-0.302c0-0.082,0.026-0.164,0.076-0.243
	c0.05-0.08,0.104-0.146,0.164-0.199c0.072-0.066,0.153-0.115,0.242-0.146s0.19-0.049,0.306-0.049c0.098,0,0.202,0.008,0.31,0.018
	c0.11,0.012,0.212,0.025,0.308,0.037l-0.065,0.416c-0.048-0.016-0.099-0.031-0.155-0.047c-0.056-0.018-0.11-0.031-0.165-0.047
	c-0.055-0.012-0.107-0.023-0.159-0.031c-0.051-0.006-0.097-0.01-0.138-0.01c-0.053,0-0.091,0.002-0.119,0.008
	c-0.029,0.006-0.049,0.012-0.065,0.021c-0.014,0.01-0.024,0.029-0.032,0.059s-0.013,0.061-0.013,0.092
	c0,0.064,0.026,0.113,0.078,0.15c0.051,0.037,0.115,0.066,0.192,0.098c0.078,0.027,0.16,0.059,0.25,0.088
	c0.09,0.031,0.174,0.068,0.251,0.117c0.078,0.047,0.142,0.109,0.193,0.186C-71.643,43.79-71.617,43.885-71.617,44.006"/>
<path fill="#FFFFFF" d="M-71.113,42.892l-0.224-0.076v-0.125l0.646-0.457h0.165l0.006,0.367h0.637l-0.028,0.231
	c-0.046,0.008-0.106,0.017-0.175,0.023c-0.069,0.006-0.135,0.014-0.199,0.018c-0.074,0.006-0.152,0.015-0.232,0.021v1.181
	c0,0.073,0.014,0.139,0.041,0.188c0.028,0.051,0.084,0.075,0.171,0.075c0.021,0,0.053-0.002,0.091-0.004
	c0.039-0.002,0.079-0.004,0.121-0.01c0.041-0.004,0.083-0.01,0.121-0.016c0.041-0.006,0.074-0.01,0.102-0.016v0.174
	c-0.05,0.033-0.108,0.064-0.174,0.098c-0.066,0.034-0.137,0.063-0.21,0.088c-0.074,0.025-0.149,0.047-0.223,0.064
	c-0.075,0.016-0.148,0.023-0.215,0.023c-0.053,0-0.104-0.007-0.155-0.017c-0.049-0.011-0.094-0.029-0.135-0.062
	c-0.04-0.029-0.072-0.07-0.097-0.125c-0.024-0.053-0.036-0.121-0.036-0.209v-1.437H-71.113z"/>
<path fill="#FFFFFF" d="M-68.881,42.601v1.405c0,0.127,0.02,0.22,0.06,0.279c0.04,0.062,0.109,0.09,0.204,0.09
	c0.035,0,0.072-0.004,0.114-0.016c0.041-0.01,0.083-0.023,0.127-0.039c0.043-0.02,0.085-0.039,0.125-0.059
	c0.04-0.021,0.077-0.045,0.112-0.07V42.6h0.597v2.098h-0.535l-0.054-0.244h-0.008c-0.041,0.027-0.09,0.057-0.148,0.09
	s-0.12,0.066-0.187,0.097c-0.068,0.03-0.137,0.057-0.211,0.077c-0.074,0.021-0.146,0.029-0.216,0.029
	c-0.08,0-0.153-0.014-0.223-0.037c-0.07-0.026-0.13-0.065-0.183-0.117c-0.052-0.053-0.093-0.114-0.125-0.194
	c-0.03-0.076-0.046-0.168-0.046-0.271v-1.526H-68.881z"/>
<path fill="#FFFFFF" d="M-65.593,42.599c0-0.033-0.002-0.063-0.004-0.093c-0.002-0.024-0.003-0.051-0.003-0.077v-0.066v-1.104
	l0.593-0.123V44.7h-0.406l-0.167-0.195h-0.01c-0.083,0.059-0.17,0.113-0.264,0.162c-0.095,0.051-0.203,0.076-0.326,0.076
	c-0.109,0-0.214-0.021-0.315-0.058c-0.1-0.037-0.189-0.097-0.268-0.181c-0.076-0.082-0.138-0.188-0.185-0.319
	c-0.046-0.131-0.07-0.291-0.07-0.479c0-0.179,0.023-0.34,0.069-0.48c0.044-0.143,0.111-0.262,0.198-0.361
	c0.085-0.096,0.191-0.172,0.313-0.225c0.123-0.051,0.262-0.078,0.417-0.078c0.064,0,0.133,0.004,0.207,0.012
	C-65.74,42.577-65.667,42.586-65.593,42.599 M-66.397,43.67c0,0.24,0.04,0.418,0.119,0.529c0.08,0.113,0.185,0.168,0.317,0.168
	c0.066,0,0.13-0.008,0.193-0.025c0.063-0.02,0.118-0.041,0.165-0.063v-1.37c-0.09-0.021-0.182-0.031-0.272-0.031
	c-0.084,0-0.159,0.008-0.222,0.021c-0.063,0.015-0.113,0.035-0.15,0.065c-0.033,0.035-0.067,0.111-0.1,0.23
	C-66.38,43.313-66.397,43.472-66.397,43.67"/>
<path fill="#FFFFFF" d="M-64.05,41.415l0.379,0.391L-64.05,42.2l-0.375-0.395L-64.05,41.415z M-63.74,44.7h-0.597v-2.099h0.597V44.7
	z"/>
<path fill="#FFFFFF" d="M-62.162,44.743c-0.341,0-0.602-0.095-0.783-0.279c-0.181-0.185-0.271-0.455-0.271-0.813
	c0-0.168,0.023-0.317,0.066-0.453c0.044-0.137,0.111-0.25,0.199-0.344c0.089-0.097,0.199-0.168,0.331-0.22
	c0.131-0.053,0.284-0.077,0.457-0.077c0.347,0,0.609,0.096,0.787,0.282c0.178,0.188,0.266,0.457,0.266,0.806
	c0,0.17-0.022,0.321-0.066,0.457c-0.045,0.137-0.111,0.252-0.2,0.346c-0.089,0.095-0.199,0.166-0.331,0.218
	C-61.837,44.715-61.99,44.743-62.162,44.743 M-62.595,43.646c0,0.274,0.033,0.479,0.099,0.606c0.067,0.131,0.175,0.195,0.33,0.195
	c0.06,0,0.115-0.006,0.167-0.016c0.052-0.01,0.095-0.025,0.129-0.045c0.023-0.012,0.042-0.041,0.06-0.086
	c0.016-0.043,0.032-0.098,0.043-0.164c0.013-0.066,0.022-0.141,0.027-0.225c0.007-0.086,0.009-0.172,0.009-0.265
	c0-0.269-0.034-0.467-0.1-0.601c-0.068-0.133-0.176-0.2-0.326-0.2c-0.058,0-0.112,0.006-0.167,0.019
	c-0.055,0.012-0.103,0.028-0.143,0.055c-0.023,0.012-0.042,0.041-0.06,0.086c-0.018,0.043-0.031,0.098-0.042,0.164
	c-0.009,0.063-0.017,0.139-0.022,0.221C-62.593,43.474-62.595,43.558-62.595,43.646"/>
<path fill="#FFFFFF" d="M-58.401,42.599c0-0.033-0.001-0.063-0.003-0.093c-0.001-0.024-0.003-0.051-0.003-0.077v-0.066v-1.104
	l0.593-0.123V44.7h-0.406l-0.167-0.195h-0.011c-0.081,0.059-0.17,0.113-0.263,0.162c-0.095,0.051-0.203,0.076-0.326,0.076
	c-0.109,0-0.214-0.021-0.315-0.058c-0.102-0.037-0.191-0.097-0.268-0.181c-0.078-0.082-0.139-0.188-0.186-0.319
	c-0.046-0.131-0.069-0.291-0.069-0.479c0-0.179,0.021-0.34,0.068-0.48c0.044-0.143,0.111-0.262,0.198-0.361
	c0.086-0.096,0.19-0.172,0.313-0.225c0.123-0.051,0.262-0.078,0.417-0.078c0.064,0,0.133,0.004,0.207,0.012
	C-58.547,42.577-58.474,42.586-58.401,42.599 M-59.205,43.67c0,0.24,0.039,0.418,0.119,0.529c0.08,0.113,0.185,0.168,0.317,0.168
	c0.066,0,0.13-0.008,0.193-0.025c0.062-0.02,0.117-0.041,0.165-0.063v-1.37c-0.09-0.021-0.182-0.031-0.272-0.031
	c-0.085,0-0.158,0.008-0.222,0.021c-0.063,0.015-0.113,0.035-0.15,0.065c-0.034,0.035-0.067,0.111-0.1,0.23
	C-59.188,43.313-59.205,43.472-59.205,43.67"/>
<path fill="#FFFFFF" d="M-56.257,42.556c0.099,0,0.196,0.016,0.291,0.045c0.093,0.026,0.181,0.073,0.261,0.142
	c0.079,0.067,0.148,0.157,0.206,0.27c0.058,0.113,0.101,0.252,0.13,0.422v0.027c-0.018,0.024-0.042,0.047-0.073,0.067
	c-0.03,0.021-0.071,0.037-0.121,0.054c-0.049,0.014-0.11,0.028-0.184,0.041c-0.073,0.012-0.16,0.021-0.262,0.026l-0.662,0.054v0.088
	c0,0.164,0.043,0.299,0.129,0.403c0.087,0.106,0.217,0.162,0.389,0.162c0.07,0,0.145-0.008,0.222-0.022
	c0.078-0.015,0.15-0.031,0.22-0.053c0.069-0.021,0.133-0.041,0.191-0.064c0.058-0.022,0.101-0.038,0.132-0.057l0.051,0.154
	c-0.064,0.047-0.136,0.096-0.215,0.146c-0.08,0.053-0.164,0.098-0.256,0.139c-0.09,0.041-0.187,0.074-0.288,0.1
	c-0.101,0.027-0.204,0.041-0.312,0.041c-0.124,0-0.241-0.02-0.348-0.057c-0.108-0.037-0.202-0.096-0.28-0.18
	c-0.078-0.082-0.14-0.188-0.186-0.32c-0.046-0.131-0.068-0.291-0.068-0.48c0-0.209,0.026-0.389,0.079-0.535
	c0.051-0.147,0.125-0.266,0.218-0.354c0.092-0.09,0.202-0.153,0.329-0.194C-56.539,42.577-56.403,42.556-56.257,42.556
	 M-56.541,42.913c-0.015,0.014-0.031,0.039-0.046,0.075c-0.015,0.037-0.028,0.082-0.039,0.134c-0.011,0.051-0.021,0.104-0.027,0.16
	c-0.007,0.057-0.01,0.108-0.01,0.161l0.657-0.03c-0.007-0.062-0.017-0.123-0.03-0.189c-0.014-0.066-0.033-0.127-0.06-0.182
	c-0.026-0.056-0.059-0.101-0.097-0.138c-0.039-0.034-0.085-0.055-0.141-0.055c-0.038,0-0.075,0.006-0.108,0.014
	C-56.476,42.874-56.508,42.888-56.541,42.913"/>
<path fill="#FFFFFF" d="M-52.664,42.599c0-0.033,0-0.063-0.003-0.093c-0.001-0.024-0.003-0.051-0.003-0.077v-0.066v-1.104
	l0.593-0.123V44.7h-0.405l-0.166-0.195h-0.011c-0.082,0.059-0.17,0.113-0.265,0.162c-0.094,0.051-0.202,0.076-0.325,0.076
	c-0.109,0-0.213-0.021-0.315-0.058c-0.101-0.037-0.19-0.097-0.268-0.181c-0.077-0.082-0.139-0.188-0.186-0.319
	c-0.045-0.131-0.07-0.291-0.07-0.479c0-0.179,0.023-0.34,0.069-0.48c0.046-0.143,0.112-0.262,0.198-0.361
	c0.086-0.096,0.192-0.172,0.314-0.225c0.122-0.051,0.262-0.078,0.417-0.078c0.063,0,0.132,0.004,0.206,0.012
	C-52.81,42.577-52.736,42.586-52.664,42.599 M-53.467,43.67c0,0.24,0.039,0.418,0.12,0.529c0.079,0.113,0.185,0.168,0.316,0.168
	c0.065,0,0.13-0.008,0.191-0.025c0.063-0.02,0.118-0.041,0.167-0.063v-1.37c-0.091-0.021-0.182-0.031-0.273-0.031
	c-0.085,0-0.159,0.008-0.221,0.021c-0.064,0.015-0.114,0.035-0.15,0.065c-0.035,0.035-0.069,0.111-0.102,0.23
	C-53.451,43.314-53.467,43.472-53.467,43.67"/>
<path fill="#FFFFFF" d="M-51.12,41.415l0.378,0.391L-51.12,42.2l-0.375-0.395L-51.12,41.415z M-50.81,44.7h-0.596v-2.099h0.596V44.7
	z"/>
<path fill="#FFFFFF" d="M-48.72,44.006c0,0.119-0.025,0.218-0.075,0.293c-0.048,0.076-0.105,0.144-0.171,0.199
	c-0.034,0.029-0.07,0.06-0.109,0.09c-0.039,0.027-0.082,0.054-0.13,0.076c-0.047,0.023-0.102,0.041-0.163,0.056
	c-0.063,0.014-0.133,0.021-0.214,0.021c-0.148,0-0.282-0.016-0.403-0.047c-0.123-0.031-0.237-0.08-0.343-0.148l0.146-0.391
	c0.046,0.027,0.094,0.057,0.145,0.09c0.053,0.035,0.107,0.066,0.164,0.094c0.059,0.029,0.117,0.056,0.182,0.072
	c0.064,0.021,0.129,0.029,0.195,0.029c0.045,0,0.087-0.002,0.124-0.01s0.069-0.02,0.094-0.037c0.021-0.018,0.035-0.045,0.045-0.088
	c0.011-0.041,0.017-0.092,0.017-0.15c0-0.068-0.026-0.123-0.077-0.162c-0.051-0.041-0.115-0.074-0.192-0.104
	c-0.078-0.031-0.16-0.061-0.248-0.09c-0.09-0.029-0.172-0.066-0.25-0.117c-0.077-0.049-0.142-0.111-0.192-0.188
	c-0.051-0.076-0.076-0.177-0.076-0.302c0-0.082,0.025-0.164,0.074-0.243c0.05-0.08,0.104-0.146,0.165-0.199
	c0.072-0.066,0.152-0.115,0.24-0.146c0.09-0.031,0.192-0.049,0.308-0.049c0.097,0,0.2,0.008,0.31,0.018
	c0.108,0.012,0.211,0.025,0.307,0.037l-0.064,0.416c-0.048-0.016-0.1-0.031-0.155-0.047c-0.056-0.018-0.11-0.031-0.165-0.047
	c-0.054-0.012-0.107-0.023-0.158-0.031c-0.052-0.006-0.097-0.01-0.139-0.01c-0.052,0-0.092,0.002-0.118,0.008
	c-0.027,0.006-0.049,0.012-0.065,0.021c-0.013,0.01-0.024,0.029-0.033,0.059c-0.008,0.029-0.011,0.061-0.011,0.092
	c0,0.064,0.025,0.113,0.076,0.15c0.052,0.037,0.116,0.066,0.193,0.098c0.076,0.027,0.16,0.059,0.25,0.088
	c0.089,0.031,0.174,0.068,0.25,0.117c0.077,0.047,0.142,0.109,0.192,0.186C-48.747,43.79-48.72,43.885-48.72,44.006"/>
<path fill="#FFFFFF" d="M-47.351,42.556c0.1,0,0.195,0.016,0.29,0.045c0.095,0.026,0.181,0.073,0.261,0.142
	c0.081,0.067,0.148,0.157,0.206,0.27c0.059,0.113,0.103,0.252,0.132,0.422v0.027c-0.018,0.024-0.044,0.047-0.073,0.067
	c-0.03,0.021-0.071,0.037-0.121,0.054c-0.051,0.014-0.111,0.028-0.184,0.041c-0.073,0.012-0.16,0.021-0.263,0.026l-0.66,0.054v0.088
	c0,0.164,0.043,0.299,0.129,0.403c0.086,0.106,0.215,0.162,0.389,0.162c0.069,0,0.144-0.008,0.221-0.022s0.151-0.031,0.221-0.053
	c0.068-0.021,0.133-0.041,0.189-0.064c0.058-0.022,0.103-0.038,0.132-0.057l0.052,0.154c-0.064,0.047-0.135,0.096-0.215,0.146
	c-0.079,0.053-0.165,0.098-0.256,0.139c-0.091,0.041-0.188,0.074-0.289,0.1c-0.1,0.027-0.204,0.041-0.311,0.041
	c-0.125,0-0.242-0.02-0.35-0.057s-0.201-0.096-0.279-0.18c-0.077-0.082-0.14-0.188-0.186-0.32c-0.045-0.131-0.068-0.291-0.068-0.48
	c0-0.209,0.026-0.389,0.078-0.535c0.053-0.147,0.126-0.266,0.22-0.354c0.092-0.09,0.202-0.153,0.328-0.194
	C-47.633,42.577-47.497,42.556-47.351,42.556 M-47.634,42.913c-0.016,0.014-0.032,0.039-0.046,0.075
	c-0.016,0.037-0.028,0.082-0.04,0.134c-0.011,0.051-0.02,0.104-0.027,0.16c-0.007,0.057-0.01,0.108-0.01,0.161l0.658-0.03
	c-0.007-0.062-0.017-0.123-0.031-0.189c-0.014-0.066-0.032-0.127-0.061-0.182c-0.025-0.056-0.059-0.101-0.096-0.138
	c-0.039-0.034-0.085-0.055-0.141-0.055c-0.038,0-0.074,0.006-0.108,0.014C-47.571,42.874-47.603,42.888-47.634,42.913"/>
<path fill="#FFFFFF" d="M-44.601,44.7v-1.406c0-0.123-0.021-0.217-0.061-0.275s-0.108-0.088-0.203-0.088
	c-0.034,0-0.072,0.004-0.114,0.014c-0.042,0.008-0.083,0.02-0.126,0.039c-0.042,0.016-0.083,0.037-0.123,0.059
	c-0.042,0.021-0.079,0.043-0.114,0.068v1.59h-0.596v-2.098h0.532l0.054,0.246h0.007c0.041-0.027,0.09-0.059,0.148-0.092
	c0.059-0.031,0.121-0.063,0.188-0.092c0.069-0.029,0.14-0.058,0.212-0.076c0.073-0.021,0.145-0.031,0.215-0.031
	c0.078,0,0.154,0.016,0.222,0.041c0.071,0.025,0.131,0.064,0.184,0.115c0.052,0.051,0.094,0.115,0.124,0.19
	c0.03,0.078,0.047,0.171,0.047,0.272v1.521h-0.596V44.7z M-45.291,42.004c-0.043,0-0.078,0.006-0.106,0.021
	c-0.025,0.015-0.049,0.029-0.066,0.052c-0.016,0.021-0.03,0.045-0.038,0.071c-0.01,0.026-0.019,0.056-0.024,0.082l-0.174-0.041
	c0.015-0.078,0.032-0.149,0.057-0.219c0.023-0.068,0.055-0.125,0.09-0.173c0.037-0.049,0.078-0.086,0.126-0.112
	c0.049-0.026,0.102-0.041,0.16-0.041c0.057,0,0.115,0.015,0.176,0.037c0.061,0.024,0.119,0.053,0.176,0.079
	c0.057,0.029,0.109,0.056,0.163,0.08c0.05,0.025,0.096,0.039,0.137,0.039c0.041,0,0.075-0.008,0.104-0.021
	c0.029-0.019,0.052-0.034,0.068-0.06c0.018-0.021,0.03-0.047,0.039-0.073c0.009-0.022,0.017-0.05,0.024-0.072l0.177,0.039
	c-0.025,0.16-0.074,0.291-0.149,0.396c-0.075,0.102-0.173,0.154-0.294,0.154c-0.063,0-0.125-0.015-0.182-0.039
	c-0.059-0.023-0.114-0.052-0.167-0.08c-0.053-0.027-0.106-0.056-0.155-0.08C-45.201,42.017-45.248,42.004-45.291,42.004"/>
<path fill="#FFFFFF" d="M-42.441,44.743c-0.343,0-0.603-0.095-0.783-0.279c-0.181-0.185-0.271-0.455-0.271-0.813
	c0-0.168,0.023-0.317,0.068-0.453c0.044-0.137,0.109-0.25,0.197-0.344c0.09-0.097,0.2-0.168,0.331-0.22
	c0.132-0.053,0.285-0.077,0.458-0.077c0.347,0,0.608,0.096,0.786,0.282c0.177,0.188,0.267,0.457,0.267,0.806
	c0,0.17-0.023,0.321-0.066,0.457c-0.046,0.137-0.111,0.252-0.2,0.346c-0.089,0.095-0.199,0.166-0.33,0.218
	C-42.117,44.715-42.27,44.743-42.441,44.743 M-42.875,43.646c0,0.274,0.032,0.479,0.098,0.606c0.066,0.131,0.178,0.195,0.332,0.195
	c0.058,0,0.113-0.006,0.166-0.016c0.054-0.01,0.095-0.025,0.129-0.045c0.022-0.012,0.044-0.041,0.06-0.086
	c0.019-0.043,0.033-0.098,0.046-0.164c0.011-0.066,0.021-0.141,0.026-0.225c0.006-0.086,0.009-0.172,0.009-0.265
	c0-0.269-0.033-0.467-0.1-0.601c-0.068-0.133-0.177-0.2-0.327-0.2c-0.055,0-0.111,0.006-0.167,0.019
	c-0.054,0.012-0.101,0.028-0.143,0.055c-0.023,0.012-0.041,0.041-0.06,0.086c-0.016,0.043-0.03,0.098-0.04,0.164
	c-0.01,0.063-0.019,0.139-0.023,0.221C-42.873,43.474-42.875,43.558-42.875,43.646"/>
<path fill="#FFFFFF" d="M-39.393,46.163c-0.139,0-0.257-0.013-0.353-0.037c-0.096-0.025-0.175-0.06-0.235-0.103
	c-0.06-0.041-0.103-0.088-0.129-0.146c-0.026-0.055-0.039-0.112-0.039-0.174c0-0.106,0.037-0.199,0.108-0.272
	c0.073-0.074,0.168-0.144,0.287-0.207l0.14,0.036c-0.012,0.048-0.021,0.087-0.025,0.121c-0.007,0.035-0.01,0.078-0.01,0.123
	c0,0.095,0.033,0.17,0.098,0.228c0.065,0.058,0.16,0.086,0.288,0.086c0.059,0,0.117-0.004,0.175-0.01
	c0.058-0.009,0.114-0.019,0.17-0.026c0.054-0.013,0.104-0.023,0.151-0.039c0.046-0.017,0.086-0.033,0.117-0.05
	c0.045-0.026,0.074-0.067,0.087-0.123c0.013-0.055,0.02-0.12,0.02-0.196c0-0.156-0.158-0.232-0.472-0.232l-0.333-0.004
	c-0.237-0.002-0.409-0.035-0.518-0.104c-0.107-0.066-0.16-0.183-0.16-0.345c0-0.051,0.01-0.104,0.034-0.153
	c0.022-0.056,0.051-0.104,0.087-0.15c0.035-0.049,0.072-0.092,0.116-0.135c0.041-0.039,0.08-0.078,0.116-0.111
	c-0.059-0.027-0.115-0.064-0.169-0.111c-0.056-0.047-0.104-0.1-0.145-0.162c-0.04-0.061-0.073-0.129-0.097-0.207
	c-0.023-0.076-0.036-0.16-0.036-0.252c0-0.135,0.023-0.254,0.071-0.357c0.045-0.104,0.109-0.192,0.191-0.266
	c0.081-0.072,0.178-0.129,0.289-0.168c0.111-0.039,0.232-0.059,0.361-0.059c0.11,0,0.205,0.008,0.29,0.018
	c0.084,0.012,0.165,0.029,0.245,0.057c0.107-0.006,0.222-0.014,0.343-0.026c0.122-0.015,0.228-0.026,0.318-0.047l-0.048,0.272
	c-0.043,0.017-0.101,0.027-0.17,0.037c-0.07,0.01-0.134,0.014-0.188,0.014c0.024,0.048,0.053,0.111,0.083,0.193
	c0.031,0.082,0.046,0.189,0.046,0.318c0,0.131-0.021,0.248-0.068,0.35c-0.045,0.104-0.108,0.189-0.188,0.258
	c-0.08,0.069-0.177,0.123-0.287,0.158c-0.112,0.037-0.234,0.055-0.366,0.055c-0.019,0-0.044,0-0.071,0
	c-0.026-0.002-0.054-0.004-0.081-0.004s-0.053-0.004-0.077-0.008c-0.024-0.002-0.044-0.006-0.06-0.012
	c-0.014,0.025-0.027,0.057-0.044,0.1c-0.016,0.043-0.023,0.084-0.023,0.127c0,0.049,0.022,0.082,0.069,0.101
	c0.046,0.019,0.132,0.024,0.254,0.024h0.47c0.143,0,0.263,0.013,0.361,0.033c0.099,0.023,0.178,0.059,0.236,0.109
	c0.061,0.047,0.104,0.107,0.129,0.182c0.024,0.074,0.037,0.162,0.037,0.266c0,0.123-0.035,0.244-0.104,0.367
	c-0.069,0.125-0.166,0.236-0.291,0.334c-0.125,0.099-0.272,0.178-0.441,0.238C-39.004,46.129-39.191,46.163-39.393,46.163
	 M-39.188,43.933c0.053,0,0.096-0.004,0.133-0.015c0.036-0.008,0.068-0.021,0.1-0.041c0.029-0.018,0.053-0.069,0.072-0.16
	c0.02-0.088,0.028-0.198,0.028-0.338c0-0.075-0.006-0.146-0.02-0.213c-0.014-0.066-0.036-0.123-0.065-0.172
	s-0.064-0.088-0.107-0.115c-0.042-0.026-0.092-0.041-0.151-0.041c-0.047,0-0.088,0.004-0.122,0.015
	c-0.034,0.008-0.067,0.021-0.1,0.041c-0.03,0.021-0.058,0.073-0.074,0.16c-0.018,0.086-0.027,0.198-0.027,0.342
	c0,0.071,0.008,0.142,0.021,0.205c0.016,0.065,0.036,0.123,0.063,0.172c0.028,0.054,0.062,0.09,0.104,0.117
	C-39.292,43.918-39.243,43.933-39.188,43.933"/>
<path fill="#FFFFFF" d="M-36.358,43.077c-0.045-0.019-0.093-0.031-0.146-0.039c-0.052-0.013-0.102-0.017-0.149-0.017
	c-0.034,0-0.064,0.002-0.092,0.008c-0.026,0.007-0.054,0.017-0.077,0.029c-0.022,0.014-0.047,0.03-0.07,0.055
	c-0.024,0.022-0.052,0.052-0.081,0.082V44.7h-0.597v-2.099h0.535l0.052,0.332h0.004c0.016-0.022,0.034-0.052,0.058-0.086
	c0.022-0.031,0.047-0.063,0.073-0.099c0.026-0.033,0.054-0.063,0.08-0.09c0.029-0.027,0.059-0.047,0.087-0.059
	c0.055-0.018,0.113-0.029,0.178-0.035c0.066-0.006,0.139-0.01,0.216-0.01L-36.358,43.077z"/>
<path fill="#FFFFFF" d="M-34.17,44.39c0.05,0,0.12-0.015,0.208-0.037v0.144c-0.031,0.028-0.069,0.059-0.112,0.086
	c-0.044,0.028-0.089,0.055-0.138,0.076c-0.05,0.021-0.1,0.038-0.151,0.053c-0.053,0.01-0.104,0.018-0.153,0.018
	c-0.055,0-0.102-0.01-0.142-0.023c-0.037-0.016-0.069-0.037-0.098-0.061c-0.029-0.023-0.053-0.053-0.074-0.084
	c-0.018-0.031-0.034-0.063-0.047-0.092c-0.05,0.035-0.101,0.068-0.149,0.102c-0.048,0.034-0.101,0.061-0.153,0.086
	c-0.054,0.025-0.108,0.045-0.169,0.063c-0.058,0.016-0.124,0.022-0.197,0.022c-0.163,0-0.291-0.053-0.388-0.152
	c-0.094-0.104-0.141-0.258-0.141-0.465c0-0.108,0.016-0.205,0.044-0.285c0.026-0.082,0.072-0.149,0.134-0.202
	c0.063-0.056,0.144-0.097,0.242-0.123c0.098-0.027,0.219-0.045,0.362-0.05l0.36-0.012v-0.305c0-0.082-0.023-0.143-0.067-0.182
	s-0.12-0.059-0.225-0.059c-0.077,0-0.164,0.01-0.263,0.024c-0.098,0.021-0.202,0.051-0.311,0.094l-0.082-0.217
	c0.072-0.031,0.147-0.063,0.226-0.093c0.078-0.03,0.158-0.059,0.238-0.081c0.08-0.023,0.163-0.044,0.246-0.058
	c0.083-0.016,0.164-0.022,0.247-0.022c0.092,0,0.176,0.01,0.25,0.024c0.073,0.021,0.134,0.049,0.184,0.088
	c0.049,0.041,0.086,0.097,0.112,0.164c0.026,0.068,0.04,0.152,0.04,0.252v0.967C-34.336,44.279-34.281,44.39-34.17,44.39
	 M-34.91,44.292c-0.002-0.01-0.004-0.033-0.006-0.069c-0.003-0.039-0.005-0.087-0.007-0.146c-0.003-0.057-0.004-0.123-0.005-0.197
	c-0.001-0.073-0.001-0.149-0.001-0.233c-0.147,0-0.257,0.011-0.33,0.026c-0.074,0.019-0.121,0.037-0.139,0.063
	c-0.008,0.011-0.017,0.027-0.021,0.054c-0.006,0.022-0.011,0.051-0.014,0.082c-0.004,0.03-0.005,0.063-0.007,0.096
	c0,0.033-0.001,0.063-0.001,0.09c0,0.096,0.012,0.174,0.037,0.232c0.027,0.059,0.07,0.088,0.131,0.088
	c0.064,0,0.128-0.008,0.187-0.023C-35.026,44.336-34.968,44.316-34.91,44.292 M-34.767,41.277l0.308,0.312l-0.765,0.666
	l-0.192-0.193L-34.767,41.277z"/>
<path fill="#FFFFFF" d="M-32.377,41.586c-0.052-0.014-0.11-0.024-0.175-0.037c-0.065-0.012-0.123-0.018-0.176-0.018
	c-0.037,0-0.074,0.002-0.114,0.006c-0.04,0.008-0.07,0.021-0.094,0.049c-0.011,0.013-0.022,0.041-0.03,0.088
	c-0.01,0.046-0.018,0.101-0.023,0.164c-0.005,0.066-0.009,0.138-0.012,0.213c-0.002,0.076-0.002,0.156-0.002,0.234V42.6h0.526
	l-0.029,0.248c-0.058,0.006-0.116,0.012-0.174,0.018c-0.05,0.006-0.104,0.01-0.162,0.014c-0.06,0.004-0.112,0.011-0.161,0.015V44.7
	h-0.598v-1.806c-0.017,0-0.045,0-0.081-0.002c-0.036,0-0.075,0-0.113,0h-0.137l0.028-0.172c0.043-0.017,0.084-0.029,0.122-0.041
	c0.031-0.013,0.065-0.021,0.1-0.033c0.033-0.01,0.061-0.017,0.081-0.019v-0.381c0-0.133,0.029-0.264,0.087-0.387
	c0.059-0.125,0.135-0.238,0.228-0.338c0.093-0.1,0.198-0.178,0.317-0.238c0.117-0.061,0.236-0.092,0.356-0.092
	c0.05,0,0.106,0.004,0.169,0.01s0.117,0.012,0.166,0.019L-32.377,41.586z"/>
<path fill="#FFFFFF" d="M-31.808,41.415l0.377,0.391l-0.377,0.395l-0.375-0.395L-31.808,41.415z M-31.499,44.7h-0.597v-2.099h0.597
	V44.7z"/>
<path fill="#FFFFFF" d="M-29.335,43.049c-0.075-0.036-0.164-0.075-0.268-0.11c-0.103-0.037-0.215-0.056-0.334-0.056
	c-0.051,0-0.102,0.007-0.15,0.017c-0.051,0.011-0.094,0.029-0.13,0.058c-0.041,0.028-0.073,0.1-0.099,0.209
	c-0.025,0.11-0.038,0.285-0.038,0.52c0,0.131,0.01,0.24,0.028,0.33c0.017,0.09,0.044,0.164,0.081,0.221
	c0.036,0.055,0.082,0.096,0.137,0.119c0.055,0.023,0.116,0.035,0.187,0.035c0.111,0,0.228-0.012,0.348-0.035
	c0.121-0.023,0.229-0.055,0.327-0.098l0.055,0.152c-0.115,0.096-0.248,0.174-0.396,0.235c-0.15,0.063-0.312,0.097-0.489,0.097
	c-0.125,0-0.242-0.021-0.354-0.058c-0.109-0.037-0.204-0.097-0.283-0.181c-0.08-0.082-0.144-0.188-0.189-0.319
	c-0.047-0.131-0.069-0.291-0.069-0.479c0-0.179,0.023-0.34,0.072-0.48c0.05-0.143,0.12-0.262,0.214-0.361
	c0.093-0.1,0.209-0.174,0.347-0.227c0.139-0.053,0.297-0.08,0.477-0.08c0.109,0,0.219,0.008,0.329,0.023
	c0.11,0.018,0.211,0.035,0.302,0.055L-29.335,43.049z"/>
<path fill="#FFFFFF" d="M-27.864,44.743c-0.339,0-0.602-0.095-0.781-0.279c-0.181-0.185-0.271-0.455-0.271-0.813
	c0-0.168,0.022-0.317,0.065-0.453c0.045-0.137,0.111-0.25,0.199-0.344c0.09-0.097,0.199-0.168,0.331-0.22
	c0.133-0.053,0.284-0.077,0.456-0.077c0.349,0,0.609,0.096,0.788,0.282c0.177,0.188,0.266,0.457,0.266,0.806
	c0,0.17-0.022,0.321-0.066,0.457c-0.044,0.137-0.111,0.252-0.199,0.346c-0.089,0.095-0.2,0.166-0.331,0.218
	C-27.539,44.715-27.69,44.743-27.864,44.743 M-28.296,43.646c0,0.274,0.033,0.479,0.099,0.606c0.067,0.131,0.178,0.195,0.33,0.195
	c0.061,0,0.116-0.006,0.169-0.016c0.051-0.01,0.096-0.025,0.129-0.045c0.023-0.012,0.042-0.041,0.06-0.086
	c0.017-0.043,0.031-0.098,0.044-0.164c0.013-0.066,0.021-0.141,0.027-0.225c0.005-0.086,0.009-0.172,0.009-0.265
	c0-0.269-0.033-0.467-0.101-0.601c-0.068-0.133-0.175-0.2-0.325-0.2c-0.057,0-0.113,0.006-0.166,0.019
	c-0.057,0.012-0.104,0.028-0.145,0.055c-0.022,0.012-0.042,0.041-0.061,0.086c-0.017,0.043-0.03,0.098-0.039,0.164
	c-0.012,0.063-0.02,0.139-0.022,0.221C-28.293,43.474-28.296,43.558-28.296,43.646"/>
</svg>
