<?xml version="1.0" encoding="utf-8"?>
<!-- Generator: Adobe Illustrator 16.0.0, SVG Export Plug-In . SVG Version: 6.00 Build 0)  -->
<!DOCTYPE svg PUBLIC "-//W3C//DTD SVG 1.1//EN" "http://www.w3.org/Graphics/SVG/1.1/DTD/svg11.dtd">
<svg version="1.1" id="Layer_1" xmlns="http://www.w3.org/2000/svg" xmlns:xlink="http://www.w3.org/1999/xlink" x="0px" y="0px"
	 width="377px" height="377px" viewBox="0 0 377 377" enable-background="new 0 0 377 377" xml:space="preserve">
<g>
	<path fill="#FFFFFF" d="M197.494,165.813c-0.031-3.735,0.383-6.832,1.088-9.886c0.516-2.226,1.269-4.381,2.24-6.446
		c1.004-2.144,2.219-4.17,3.617-6.092c1.223-1.685,2.593-3.234,4.052-4.713c1.086-1.099,2.236-2.128,3.461-3.083
		c0.994-0.773,2.009-1.508,3.058-2.198c1.934-1.269,3.996-2.296,6.146-3.149c3.565-1.412,7.264-2.209,11.088-2.419
		c0.932-0.05,1.864-0.144,2.8-0.131c2.982,0.043,5.953,0.316,8.869,1.003c3.055,0.718,5.982,1.81,8.742,3.309
		c2.55,1.386,4.901,3.062,7.062,5.002c1.854,1.665,3.569,3.458,5.104,5.414c1.063,1.357,2.016,2.788,2.882,4.281
		c1.477,2.544,2.583,5.233,3.382,8.058c0.56,1.977,0.881,3.985,1.131,6.018c0.188,1.515,0.28,3.026,0.28,4.545
		c0,1.462-0.098,2.914-0.284,4.37c-0.192,1.479-0.387,2.955-0.725,4.409c-0.703,3.03-1.758,5.937-3.247,8.671
		c-1.119,2.054-2.417,3.996-3.906,5.81c-1.148,1.404-2.365,2.743-3.69,3.977c-1.539,1.434-3.153,2.773-4.907,3.95
		c-1.435,0.963-2.924,1.833-4.468,2.592c-1.313,0.643-2.66,1.206-4.052,1.664c-2.03,0.67-4.097,1.132-6.212,1.465
		c-2.059,0.32-4.121,0.48-6.198,0.459c-1.926-0.013-3.848-0.12-5.758-0.453c-1.267-0.219-2.533-0.416-3.779-0.74
		c-1.496-0.397-2.97-0.859-4.408-1.446c-1.9-0.771-3.71-1.718-5.459-2.783c-1.373-0.838-2.679-1.771-3.896-2.826
		c-0.93-0.801-1.853-1.605-2.731-2.461c-1.976-1.913-3.76-3.991-5.269-6.306c-0.859-1.325-1.672-2.674-2.365-4.094
		c-0.709-1.443-1.308-2.933-1.808-4.462c-0.719-2.2-1.169-4.455-1.491-6.745C197.604,168.655,197.535,166.94,197.494,165.813
		 M235.05,143.854c-1.521,0.006-3.027,0.144-4.526,0.437c-2.644,0.524-5.083,1.541-7.305,3.052c-2.067,1.404-3.86,3.113-5.379,5.104
		c-1.227,1.616-2.211,3.369-2.91,5.272c-0.576,1.566-0.988,3.183-1.159,4.846c-0.187,1.897-0.174,3.79,0.054,5.685
		c0.139,1.138,0.428,2.232,0.734,3.332c0.37,1.338,0.936,2.584,1.595,3.79c0.433,0.79,0.967,1.526,1.462,2.279
		c0.73,1.108,1.637,2.063,2.593,2.96c0.851,0.795,1.747,1.554,2.689,2.238c1.015,0.736,2.115,1.35,3.27,1.859
		c1.533,0.679,3.112,1.186,4.751,1.495c1.123,0.21,2.259,0.309,3.398,0.333c2.294,0.055,4.545-0.153,6.758-0.817
		c2.46-0.744,4.724-1.845,6.75-3.432c1.691-1.325,3.191-2.814,4.474-4.539c1.109-1.488,2.011-3.091,2.673-4.811
		c0.834-2.165,1.29-4.424,1.364-6.755c0.042-1.17-0.004-2.334-0.123-3.501c-0.191-1.877-0.641-3.688-1.329-5.431
		c-0.77-1.939-1.843-3.715-3.153-5.338c-0.716-0.888-1.49-1.729-2.338-2.489c-1.219-1.091-2.511-2.082-3.948-2.894
		c-1.177-0.659-2.388-1.231-3.671-1.639C239.595,144.2,237.352,143.826,235.05,143.854"/>
	<path fill="#FFFFFF" d="M183.414,134.289c-2.223-0.02-4.438-0.18-6.651-0.387c-1.481-0.139-2.966-0.293-4.445-0.484
		c-1.824-0.238-3.645-0.52-5.464-0.784c-2.284-0.33-4.565-0.665-6.847-0.991c-1.852-0.263-3.703-0.521-5.556-0.766
		c-2.084-0.281-4.175-0.53-6.259-0.822c-3.068-0.422-6.132-0.873-9.202-1.302c-1.445-0.204-2.895-0.378-4.341-0.576
		c-1.477-0.197-2.951-0.414-4.428-0.622c-1.503-0.208-3.007-0.412-4.512-0.628c-1.416-0.199-2.834-0.383-4.243-0.624
		c-0.865-0.144-1.691-0.41-2.471-0.853c-0.784-0.443-1.394-1.055-1.945-1.739c-0.809-1-1.516-2.071-2.186-3.168
		c-0.414-0.672-0.832-1.341-1.228-2.023c-0.449-0.77-0.235-1.666,0.506-2.132c0.518-0.333,1.046-0.643,1.575-0.952
		c1.661-0.976,3.324-1.951,4.991-2.921c0.327-0.188,0.67-0.36,1.02-0.508c2.207-0.93,4.499-1.225,6.868-0.829
		c0.63,0.107,1.257,0.27,1.875,0.437c1.805,0.488,3.606,0.992,5.41,1.489c1.631,0.451,3.266,0.896,4.896,1.348
		c2.619,0.724,5.235,1.454,7.852,2.178c2.675,0.738,5.348,1.475,8.021,2.219c2.954,0.818,5.907,1.651,8.863,2.467
		c2.08,0.577,4.17,1.132,6.252,1.698c2.877,0.779,5.751,1.562,8.624,2.35c2.704,0.738,5.404,1.487,8.108,2.229
		c2.647,0.727,5.295,1.448,7.943,2.178c1.886,0.521,3.769,1.049,5.653,1.575c0.142,0.04,0.294,0.071,0.41,0.151
		c0.081,0.053,0.162,0.186,0.154,0.271c-0.011,0.09-0.119,0.21-0.206,0.235c-0.306,0.096-0.622,0.172-0.938,0.223
		c-0.983,0.146-1.965,0.278-2.95,0.416c-1.766,0.251-3.527,0.495-5.292,0.755c-2.834,0.414-5.678,0.74-8.542,0.893
		C184.292,134.309,183.852,134.289,183.414,134.289"/>
	<path fill="#FFFFFF" d="M150.819,144.823c-1.46,0.045-2.92,0.095-4.382,0.137c-1.429,0.04-2.862,0.064-4.291,0.1
		c-2.22,0.057-4.439,0.119-6.658,0.171c-2.219,0.056-4.438,0.112-6.658,0.158c-3.068,0.063-6.134,0.114-9.202,0.177
		c-0.905,0.019-1.812,0.068-2.717,0.072c-1.246,0-2.432-0.276-3.53-0.888c-0.747-0.418-1.34-1.034-1.943-1.627
		c-1.296-1.265-2.452-2.658-3.621-4.039c-0.395-0.468-0.359-1.379,0.092-1.853c0.322-0.338,0.674-0.649,1.034-0.949
		c1.127-0.926,2.265-1.841,3.396-2.767c0.449-0.372,0.874-0.773,1.327-1.14c2.231-1.815,4.788-2.752,7.669-2.787
		c1.554-0.022,3.089,0.171,4.621,0.39c0.666,0.093,1.332,0.168,1.999,0.236c1.891,0.198,3.78,0.374,5.668,0.578
		c1.857,0.202,3.713,0.433,5.568,0.641c1.194,0.134,2.383,0.252,3.576,0.381c1.624,0.177,3.251,0.362,4.875,0.534
		c2.471,0.258,4.942,0.506,7.413,0.769c2.032,0.218,4.066,0.457,6.097,0.678c1.394,0.151,2.789,0.293,4.185,0.445
		c2.12,0.23,4.237,0.472,6.356,0.703c1.25,0.135,2.498,0.249,3.746,0.383c2.064,0.218,4.125,0.446,6.188,0.663
		c1.481,0.156,2.964,0.287,4.445,0.445c1.801,0.191,3.601,0.409,5.4,0.606c1.543,0.167,3.081,0.313,4.62,0.479
		c0.526,0.058,1.042,0.153,1.562,0.236c0.152,0.025,0.308,0.112,0.279,0.275c-0.023,0.113-0.146,0.262-0.258,0.304
		c-0.707,0.271-1.414,0.543-2.142,0.77c-2.315,0.713-4.635,1.405-6.956,2.104c-2.042,0.616-4.074,1.25-6.148,1.764
		c-1.934,0.477-3.889,0.759-5.869,0.968c-2.209,0.229-4.422,0.398-6.64,0.496c-1.138,0.051-2.277,0.075-3.417,0.092
		c-3.068,0.048-6.134,0.066-9.202,0.125c-2.161,0.044-4.322,0.131-6.481,0.201C150.819,144.844,150.819,144.833,150.819,144.823"/>
	<path fill="#FFFFFF" d="M201.527,125.999c-2.602,0.038-5.202,0.042-7.8-0.173c-1.339-0.109-2.658-0.381-3.98-0.617
		c-2.39-0.433-4.736-1.038-7.081-1.66c-2.654-0.703-5.283-1.483-7.924-2.238c-2.557-0.726-5.108-1.471-7.667-2.188
		c-2.614-0.734-5.237-1.442-7.85-2.172c-2.617-0.728-5.229-1.469-7.846-2.207c-1.15-0.326-2.299-0.655-3.449-0.983
		c-2.221-0.631-4.44-1.259-6.66-1.889c-1.46-0.421-2.917-0.854-4.381-1.259c-0.769-0.21-1.468-0.571-2.148-0.969
		c-0.664-0.39-1.207-0.926-1.595-1.596c-0.47-0.805-0.947-1.614-1.356-2.452c-0.501-1.023-0.953-2.071-1.386-3.124
		c-0.372-0.911-0.135-1.517,0.734-1.943c0.603-0.293,1.227-0.544,1.847-0.805c1.186-0.495,2.39-0.948,3.557-1.485
		c0.719-0.33,1.447-0.615,2.215-0.809c2.75-0.688,5.387-0.355,7.947,0.809c1.065,0.487,2.145,0.937,3.216,1.4
		c2.602,1.123,5.2,2.251,7.804,3.368c2.092,0.896,4.195,1.777,6.287,2.681c1.904,0.821,3.796,1.668,5.698,2.493
		c1.181,0.513,2.369,1.001,3.548,1.509c2.201,0.946,4.393,1.909,6.594,2.854c1.477,0.632,2.962,1.244,4.44,1.876
		c2.818,1.208,5.63,2.432,8.449,3.64c1.315,0.564,2.638,1.107,3.953,1.67c2.011,0.866,4.021,1.741,6.029,2.611
		c1.261,0.54,2.527,1.073,3.79,1.611c0.997,0.423,1.986,0.855,2.981,1.283c0.133,0.059,0.276,0.108,0.382,0.202
		c0.075,0.063,0.129,0.208,0.113,0.295c-0.023,0.092-0.131,0.219-0.223,0.233c-0.227,0.041-0.466,0.035-0.695,0.035
		c-2.224,0-4.445,0-6.667-0.002H201.527z"/>
	<path fill="#FFFFFF" d="M218.364,121.515c-1.275-0.177-2.544-0.372-3.819-0.526c-1.481-0.186-2.962-0.35-4.443-0.495
		c-2.388-0.232-4.761-0.597-7.088-1.154c-1.672-0.397-3.31-0.952-4.938-1.51c-1.633-0.551-3.24-1.18-4.844-1.802
		c-1.092-0.422-2.164-0.886-3.241-1.339c-1.375-0.579-2.737-1.169-4.11-1.747c-1.776-0.751-3.548-1.509-5.331-2.243
		c-2.08-0.854-4.17-1.678-6.248-2.53c-2.296-0.942-4.586-1.908-6.879-2.854c-1.269-0.524-2.548-1.02-3.816-1.546
		c-2.617-1.084-5.227-2.18-7.839-3.274c-1.644-0.688-3.284-1.383-4.923-2.08c-0.978-0.414-1.847-0.994-2.564-1.786
		c-0.212-0.235-0.383-0.517-0.531-0.797c-0.453-0.853-0.844-1.736-1.133-2.655c-0.348-1.116-0.678-2.234-1.036-3.348
		c-0.159-0.493-0.069-0.911,0.237-1.316c0.166-0.221,0.373-0.363,0.63-0.442c0.418-0.128,0.836-0.259,1.256-0.377
		c1.831-0.508,3.657-1.016,5.487-1.515c1.855-0.505,3.69-0.396,5.528,0.136c1.51,0.437,2.846,1.208,4.181,1.99
		c0.961,0.554,1.913,1.121,2.875,1.681c1.637,0.959,3.278,1.914,4.919,2.866c0.882,0.514,1.77,1.017,2.654,1.528
		c1.668,0.968,3.332,1.943,5,2.904c2.203,1.272,4.41,2.527,6.608,3.8c1.518,0.878,3.022,1.776,4.536,2.654
		c1.543,0.895,3.093,1.768,4.642,2.655c1.392,0.8,2.779,1.604,4.173,2.403c1.371,0.786,2.743,1.56,4.108,2.348
		c2.3,1.33,4.595,2.671,6.897,4.002c2.756,1.591,5.516,3.175,8.274,4.766c0.482,0.278,0.958,0.56,1.435,0.841
		c0.127,0.076,0.269,0.137,0.364,0.238c0.071,0.073,0.125,0.217,0.098,0.302c-0.023,0.089-0.152,0.199-0.241,0.204
		c-0.288,0.013-0.583-0.018-0.874-0.029C218.368,121.483,218.364,121.5,218.364,121.515"/>
	<path fill="#FFFFFF" d="M193.948,75.552c1.021,0,2.044-0.017,3.066,0.002c1.896,0.039,3.598,0.682,5.167,1.727
		c0.932,0.615,1.73,1.39,2.506,2.184c1.568,1.61,3.122,3.232,4.686,4.851c1.381,1.429,2.76,2.86,4.147,4.28
		c1.431,1.467,2.869,2.918,4.299,4.381c1.633,1.675,3.257,3.354,4.89,5.024c1.635,1.673,3.282,3.333,4.911,5.005
		c1.633,1.674,3.247,3.363,4.876,5.034c0.879,0.898,1.774,1.777,2.66,2.67c0.491,0.497,0.972,1.009,1.462,1.511
		c1.003,1.019,2.014,2.031,3.014,3.055c0.874,0.899,1.728,1.818,2.608,2.717c0.913,0.94,1.849,1.863,2.77,2.802
		c0.535,0.538,1.046,1.096,1.575,1.643c0.405,0.423,0.818,0.837,1.217,1.259c0.075,0.081,0.164,0.196,0.167,0.298
		c0,0.078-0.098,0.214-0.177,0.238c-0.098,0.031-0.229-0.012-0.335-0.054c-0.788-0.304-1.577-0.611-2.363-0.926
		c-1.462-0.593-2.929-1.181-4.382-1.784c-2.402-0.994-4.823-1.953-7.104-3.216c-0.888-0.499-1.749-1.061-2.593-1.628
		c-1.286-0.866-2.564-1.737-3.811-2.658c-1.271-0.933-2.5-1.921-3.74-2.897c-1.56-1.229-3.11-2.476-4.666-3.709
		c-1.695-1.342-3.395-2.677-5.094-4.011c-1.586-1.241-3.18-2.475-4.769-3.712c-1.338-1.045-2.667-2.093-3.998-3.137
		c-2.205-1.732-4.414-3.464-6.617-5.196c-1.676-1.318-3.353-2.635-5.025-3.964c-0.682-0.541-1.379-1.08-2.026-1.666
		c-0.953-0.861-1.627-1.885-1.829-3.201c-0.293-1.889-0.33-3.785-0.308-5.685c0.008-0.74,0.449-1.167,1.219-1.211
		c0.524-0.031,1.05-0.019,1.575-0.022c0.676-0.002,1.348,0,2.02,0V75.552z"/>
	<path fill="#FFFFFF" d="M174.814,78.413c1.454,0.003,2.86,0.229,4.189,0.824c0.826,0.368,1.623,0.805,2.335,1.37
		c1.873,1.487,3.738,2.987,5.616,4.479c2.151,1.706,4.306,3.405,6.458,5.106c1.487,1.176,2.977,2.354,4.462,3.532
		c1.716,1.364,3.432,2.725,5.144,4.089c1.073,0.853,2.136,1.721,3.208,2.575c1.125,0.888,2.252,1.768,3.38,2.649
		c1.168,0.918,2.342,1.837,3.513,2.754c2.226,1.752,4.456,3.501,6.677,5.257c1.599,1.271,3.186,2.556,4.79,3.825
		c1.62,1.289,3.253,2.565,4.884,3.849c0.413,0.323,0.824,0.651,1.236,0.98c0.069,0.052,0.144,0.108,0.181,0.181
		c0.035,0.071,0.064,0.191,0.029,0.244c-0.059,0.087-0.177,0.192-0.258,0.187c-0.318-0.039-0.634-0.104-0.94-0.187
		c-2.596-0.695-5.189-1.4-7.783-2.093c-2.2-0.589-4.387-1.229-6.494-2.097c-0.863-0.358-1.713-0.756-2.545-1.178
		c-1.325-0.678-2.644-1.368-3.939-2.103c-1.45-0.817-2.868-1.683-4.299-2.538c-1.529-0.913-3.053-1.836-4.578-2.753
		c-1.502-0.905-3.001-1.811-4.501-2.711c-0.726-0.437-1.452-0.869-2.186-1.298c-2.236-1.318-4.482-2.629-6.716-3.956
		c-2.336-1.383-4.664-2.776-6.991-4.177c-2.152-1.293-4.297-2.596-6.45-3.894c-0.923-0.557-1.855-1.11-2.781-1.664
		c-0.913-0.544-1.733-1.206-2.309-2.106c-0.26-0.41-0.451-0.885-0.592-1.353c-0.462-1.51-0.774-3.056-0.957-4.628
		c-0.033-0.289-0.085-0.576-0.112-0.867c-0.063-0.668,0.287-1.211,0.951-1.362c0.626-0.146,1.266-0.214,1.901-0.299
		c1.244-0.169,2.489-0.331,3.735-0.483C173.649,78.499,174.231,78.464,174.814,78.413"/>
	<path fill="#FFFFFF" d="M116.228,149.547c1.35,0.026,2.602,0.054,3.854,0.131c2.101,0.135,4.204,0.216,6.307,0.291
		c2.629,0.091,5.258,0.153,7.887,0.227c1.023,0.027,2.046,0.046,3.07,0.05c3.333,0.019,6.667,0.077,9.999,0.039
		c4.237-0.041,8.478-0.145,12.7-0.527c2.993-0.272,5.999-0.519,8.958-1.073c1.75-0.333,3.486-0.722,5.181-1.294
		c3.137-1.063,6.342-1.797,9.668-2.036c2.367-0.173,4.728-0.209,7.09,0.004c0.697,0.068,1.402,0.104,2.099,0.156
		c0.198,0.014,0.393,0.044,0.724,0.087c-0.185,0.133-0.262,0.221-0.352,0.247c-0.955,0.279-1.907,0.552-2.864,0.822
		c-1.914,0.553-3.746,1.308-5.545,2.163c-1.72,0.819-3.353,1.784-4.934,2.83c-1.635,1.076-3.174,2.284-4.703,3.51
		c-1.506,1.202-3.022,2.398-4.607,3.492c-1.674,1.163-3.553,1.928-5.584,2.182c-1.602,0.206-3.206,0.173-4.784-0.262
		c-1.159-0.318-2.273-0.745-3.394-1.175c-1.77-0.681-3.563-1.312-5.36-1.92c-2.436-0.824-4.896-1.573-7.388-2.203
		c-1.331-0.339-2.658-0.701-3.994-1.009c-2.132-0.491-4.27-0.974-6.412-1.408c-1.633-0.331-3.276-0.603-4.921-0.863
		c-2.542-0.399-5.087-0.771-7.631-1.142c-1.445-0.21-2.895-0.39-4.343-0.581c-0.143-0.021-0.299-0.015-0.428-0.07
		c-0.123-0.048-0.25-0.147-0.316-0.262C116.156,149.871,116.211,149.735,116.228,149.547"/>
	<path fill="#FFFFFF" d="M99.848,145.476c-1.497,0.375-2.896,0.229-4.289-0.197c-1.554-0.475-2.926-1.309-4.283-2.169
		c-1.477-0.943-2.958-1.883-4.428-2.831c-1.373-0.889-2.735-1.789-4.106-2.675c-1.081-0.701-2.169-1.382-3.249-2.076
		c-0.269-0.173-0.526-0.368-0.772-0.574c-0.172-0.147-0.314-0.333-0.518-0.551c0.156-0.108,0.256-0.204,0.374-0.252
		c0.327-0.129,0.659-0.235,0.991-0.354c2.685-0.981,5.37-1.975,8.057-2.945c1.647-0.593,3.307-1.16,4.963-1.737
		c1.212-0.419,2.431-0.823,3.64-1.254c2.075-0.744,4.174-0.761,6.29-0.216c0.112,0.031,0.22,0.075,0.327,0.125
		c0.155,0.07,0.31,0.153,0.495,0.249c-0.163,0.485-0.498,0.817-0.787,1.163c-0.299,0.357-0.638,0.686-1.004,0.978
		c-1.186,0.944-2.39,1.872-3.592,2.798c-1.2,0.927-2.411,1.847-3.607,2.778c-0.249,0.195-0.484,0.423-0.682,0.674
		c-0.435,0.55-0.466,1.117-0.092,1.708c0.204,0.317,0.441,0.621,0.697,0.898c0.796,0.854,1.614,1.687,2.413,2.535
		c0.724,0.764,1.448,1.527,2.143,2.315c0.345,0.393,0.632,0.838,0.936,1.267C99.808,145.197,99.804,145.295,99.848,145.476"/>
	<path fill="#FFFFFF" d="M104.673,123.359c-0.925,0.189-1.778-0.002-2.621-0.227c-1.406-0.372-2.658-1.061-3.76-1.993
		c-1.404-1.185-2.771-2.417-4.148-3.633c-1.354-1.198-2.708-2.395-4.049-3.607c-1.41-1.269-2.804-2.554-4.206-3.831
		c-0.323-0.297-0.591-0.632-0.782-0.948c0.066-0.283,0.231-0.265,0.364-0.289c1.146-0.221,2.292-0.439,3.44-0.651
		c2.037-0.385,4.073-0.763,6.111-1.146c1.98-0.364,3.96-0.734,5.94-1.097c0.976-0.181,1.949-0.376,2.931-0.514
		c1.601-0.221,3.207-0.243,4.767,0.267c0.666,0.216,1.297,0.522,1.942,0.796c0.098,0.042,0.177,0.136,0.306,0.24
		c-0.089,0.139-0.141,0.274-0.241,0.364c-0.673,0.598-1.352,1.185-2.166,1.617c-2.113,1.119-4.206,2.286-6.304,3.43
		c-0.46,0.252-0.928,0.496-1.386,0.754c-0.229,0.126-0.459,0.258-0.666,0.417c-0.625,0.496-0.792,1.128-0.493,1.874
		c0.098,0.244,0.206,0.487,0.354,0.703c0.801,1.18,1.624,2.351,2.425,3.534c0.784,1.159,1.605,2.299,2.163,3.593
		C104.64,123.112,104.644,123.227,104.673,123.359"/>
	<path fill="#FFFFFF" d="M169.002,163.466c0.264,0,0.545,0.008,0.826-0.003c0.609-0.022,1.229-0.006,1.834-0.091
		c2.105-0.287,3.85-1.304,5.354-2.769c1.092-1.064,2.013-2.267,2.895-3.509c1.319-1.861,2.702-3.669,4.364-5.248
		c1.953-1.855,4.152-3.299,6.706-4.197c1.306-0.46,2.652-0.703,4.01-0.895c0.104-0.017,0.221,0.015,0.427,0.027
		c-0.131,0.177-0.2,0.295-0.293,0.391c-0.524,0.545-1.054,1.088-1.593,1.629c-1.202,1.202-2.186,2.583-3.128,3.987
		c-1.695,2.529-3.088,5.228-4.445,7.947c-0.719,1.436-1.481,2.852-2.263,4.249c-0.514,0.922-1.145,1.774-1.914,2.497
		c-0.955,0.894-2.069,1.418-3.417,1.297c-0.701-0.058-1.366-0.23-2.028-0.499c-1.529-0.622-2.904-1.501-4.258-2.419
		c-0.967-0.653-1.918-1.337-2.87-2.007C169.096,163.775,168.944,163.709,169.002,163.466"/>
	<path fill="#FFFFFF" d="M105.514,90.104c0.466-0.115,0.896-0.156,1.331-0.175c2.101-0.09,4.204-0.171,6.302-0.277
		c2.159-0.105,4.314-0.258,6.473-0.345c1.602-0.066,3.214-0.217,4.813-0.05c1.803,0.185,3.463,0.771,4.931,1.986
		c-0.112,0.146-0.191,0.299-0.316,0.393c-0.676,0.517-1.438,0.895-2.228,1.202c-1.576,0.614-3.165,1.202-4.749,1.8
		c-0.873,0.328-1.751,0.643-2.622,0.979c-0.298,0.114-0.593,0.254-0.857,0.431c-0.554,0.376-0.764,0.888-0.558,1.522
		c0.187,0.578,0.458,1.138,0.726,1.685c0.768,1.576,1.56,3.139,2.321,4.715c0.251,0.519,0.389,1.082,0.544,1.654
		c-0.391,0.109-0.705,0.043-1.019-0.017c-1.442-0.287-2.67-1.001-3.755-1.966c-0.563-0.504-1.098-1.051-1.595-1.621
		c-1.168-1.341-2.304-2.709-3.455-4.067c-0.965-1.136-1.924-2.273-2.889-3.409c-0.828-0.984-1.667-1.953-2.486-2.939
		c-0.276-0.339-0.514-0.711-0.757-1.075C105.599,90.415,105.572,90.268,105.514,90.104"/>
	<path fill="#FFFFFF" d="M123.045,75.04c0.29,0,0.52-0.015,0.749,0.002c3.819,0.269,7.635,0.528,11.45,0.819
		c1.749,0.132,3.492,0.311,5.235,0.487c1.697,0.175,3.222,0.792,4.574,1.832c0.295,0.23,0.597,0.453,0.813,0.854
		c-0.616,0.379-1.191,0.753-1.88,0.928c-1.753,0.449-3.505,0.911-5.258,1.356c-0.99,0.252-1.989,0.477-2.979,0.724
		c-0.254,0.068-0.505,0.158-0.74,0.269c-0.533,0.247-0.791,0.687-0.764,1.265c0.012,0.287,0.075,0.58,0.171,0.854
		c0.628,1.82,1.285,3.63,1.899,5.456c0.204,0.604,0.299,1.244,0.439,1.87c0.008,0.044-0.042,0.102-0.083,0.193
		c-0.553,0.022-1.055-0.211-1.552-0.438c-1.023-0.468-1.876-1.173-2.642-1.987c-0.742-0.791-1.341-1.691-1.938-2.586
		c-1.055-1.578-2.107-3.159-3.155-4.74c-0.53-0.805-1.048-1.616-1.576-2.423c-0.51-0.782-1.032-1.554-1.533-2.345
		c-0.387-0.613-0.757-1.243-1.117-1.878C123.081,75.419,123.087,75.235,123.045,75.04"/>
	<path fill="#FFFFFF" d="M172.495,57.845c0.75,0.258,1.412,0.48,2.067,0.713c1.708,0.61,3.409,1.222,5.113,1.835
		c2.304,0.828,4.609,1.658,6.914,2.496c0.547,0.197,1.087,0.424,1.618,0.668c1.521,0.699,2.771,1.72,3.652,3.157
		c0.091,0.144,0.138,0.31,0.215,0.486c-0.77,0.342-1.538,0.473-2.336,0.447c-2.042-0.061-4.083-0.124-6.125-0.189
		c-0.41-0.013-0.815-0.045-1.227-0.063c-0.23-0.006-0.468-0.014-0.699,0.018c-0.844,0.107-1.242,0.525-1.3,1.376
		c-0.021,0.318-0.004,0.644,0.014,0.963c0.106,1.632,0.216,3.263,0.325,4.895c0.04,0.613-0.006,1.219-0.104,1.787
		c-0.201,0.191-0.387,0.116-0.516,0.017c-0.507-0.391-1.046-0.755-1.481-1.217c-0.913-0.972-1.512-2.148-1.946-3.395
		c-0.529-1.517-1.001-3.051-1.494-4.578c-0.637-1.972-1.269-3.945-1.899-5.92c-0.256-0.807-0.499-1.618-0.745-2.425
		C172.447,58.606,172.417,58.292,172.495,57.845"/>
	<path fill="#FFFFFF" d="M168.343,70.821c-0.778,0.327-1.46,0.564-2.188,0.645c-1.508,0.176-3.014,0.348-4.526,0.504
		c-0.988,0.101-1.976,0.168-2.966,0.262c-0.292,0.03-0.585,0.062-0.863,0.142c-0.693,0.204-1.019,0.639-1.003,1.358
		c0.009,0.377,0.082,0.753,0.152,1.126c0.302,1.545,0.63,3.086,0.911,4.636c0.11,0.603,0.123,1.217,0.173,1.826
		c0.004,0.05-0.042,0.102-0.087,0.2c-0.09-0.005-0.204,0.012-0.302-0.021c-0.589-0.191-1.115-0.505-1.589-0.902
		c-0.77-0.644-1.402-1.396-1.935-2.249c-0.792-1.267-1.358-2.644-1.994-3.987c-0.801-1.687-1.575-3.386-2.365-5.075
		c-0.572-1.217-1.159-2.425-1.727-3.64c-0.219-0.475-0.433-0.957-0.441-1.537c0.127-0.017,0.241-0.063,0.343-0.039
		c1.57,0.332,3.139,0.676,4.705,1.015c1.739,0.379,3.479,0.749,5.216,1.134c1.454,0.32,2.908,0.643,4.353,0.99
		c0.683,0.164,1.356,0.357,2.022,0.578C165.882,68.336,167.222,69.324,168.343,70.821"/>
	<path fill="#FFFFFF" d="M109.773,145.126c-0.17,0.059-0.247,0.108-0.331,0.115c-1.075,0.076-2.153,0.16-3.232,0.216
		c-0.449,0.022-0.863-0.112-1.224-0.399c-0.272-0.218-0.569-0.409-0.823-0.648c-1.822-1.731-3.638-3.466-5.448-5.206
		c-0.187-0.177-0.359-0.387-0.484-0.609c-0.276-0.504-0.21-1.062,0.208-1.446c0.408-0.372,0.847-0.72,1.311-1.017
		c1.306-0.847,2.517-1.804,3.689-2.818c1.307-1.126,2.602-2.259,3.923-3.368c1.806-1.522,3.859-1.823,6.082-1.142
		c0.131,0.037,0.245,0.138,0.376,0.217c-0.079,0.343-0.287,0.54-0.509,0.726c-0.676,0.558-1.348,1.117-2.034,1.664
		c-0.734,0.576-1.483,1.138-2.222,1.708c-1.207,0.923-2.417,1.839-3.613,2.776c-0.389,0.304-0.759,0.639-1.104,0.992
		c-0.426,0.438-0.474,0.907-0.16,1.441c0.16,0.272,0.366,0.524,0.584,0.759c0.78,0.828,1.577,1.647,2.363,2.467
		C108.141,142.609,109.008,143.774,109.773,145.126"/>
	<path fill="#FFFFFF" d="M114.526,124.662c-0.177,0.039-0.285,0.087-0.385,0.08c-0.847-0.06-1.691-0.118-2.533-0.205
		c-0.316-0.031-0.63-0.125-0.94-0.209c-0.495-0.135-0.901-0.413-1.215-0.819c-0.646-0.825-1.285-1.659-1.921-2.495
		c-1.007-1.325-2.014-2.65-3.01-3.981c-0.156-0.206-0.304-0.433-0.399-0.674c-0.214-0.558-0.073-1.04,0.431-1.377
		c0.387-0.26,0.803-0.475,1.219-0.687c0.911-0.457,1.845-0.876,2.741-1.362c0.921-0.503,1.814-1.059,2.704-1.614
		c1.188-0.742,2.369-1.493,3.597-2.171c1.436-0.795,2.928-0.909,4.491-0.546c0.576,0.134,1.115,0.346,1.618,0.653
		c0.069,0.042,0.114,0.125,0.187,0.204c-0.362,0.403-0.788,0.709-1.25,0.957c-2.46,1.342-4.923,2.675-7.386,4.01
		c-0.512,0.279-1.019,0.57-1.533,0.847c-0.345,0.186-0.59,0.473-0.826,0.768c-0.223,0.283-0.264,0.593-0.094,0.902
		c0.298,0.533,0.589,1.076,0.926,1.588c0.749,1.148,1.533,2.272,2.288,3.419C113.777,122.777,114.096,123.711,114.526,124.662"/>
	<path fill="#FFFFFF" d="M138.369,95.038c-0.368,0.335-0.693,0.515-1.055,0.649c-1.038,0.389-2.071,0.795-3.109,1.188
		c-1.858,0.698-3.723,1.385-5.574,2.098c-0.348,0.134-0.664,0.36-0.984,0.558c-0.375,0.229-0.464,0.593-0.375,0.992
		c0.06,0.256,0.154,0.504,0.269,0.738c0.372,0.762,0.757,1.517,1.146,2.27c0.68,1.329,1.269,2.695,1.618,4.151
		c0.027,0.112,0.04,0.228,0.066,0.396c-0.156,0.023-0.297,0.086-0.416,0.059c-0.938-0.221-1.876-0.443-2.806-0.688
		c-0.47-0.127-0.832-0.42-1.088-0.837c-0.321-0.523-0.649-1.039-0.95-1.574c-0.968-1.732-1.881-3.501-2.9-5.204
		c-0.597-1.001-0.131-1.758,0.77-2.051c1.002-0.324,1.997-0.657,2.993-0.992c1.605-0.549,3.12-1.313,4.676-1.984
		c0.909-0.391,1.834-0.755,2.772-1.075c0.703-0.241,1.454-0.227,2.169-0.064c0.826,0.188,1.623,0.49,2.338,0.965
		C138.067,94.727,138.177,94.862,138.369,95.038"/>
	<path fill="#FFFFFF" d="M154.151,83.58c-0.47,0.306-0.851,0.486-1.283,0.591c-2.298,0.554-4.593,1.123-6.889,1.695
		c-0.649,0.16-1.297,0.341-1.946,0.512c-0.057,0.015-0.113,0.026-0.169,0.044c-0.983,0.33-1.25,0.819-0.928,1.808
		c0.325,0.998,0.664,1.994,1.049,2.974c0.487,1.231,0.728,2.519,0.915,3.821c0.013,0.075-0.043,0.162-0.077,0.282
		c-0.15-0.024-0.293-0.026-0.422-0.074c-0.792-0.293-1.581-0.605-2.377-0.891c-0.466-0.171-0.797-0.476-1.025-0.904
		c-0.138-0.258-0.289-0.51-0.399-0.778c-0.849-2.049-1.693-4.104-2.532-6.154c-0.087-0.217-0.158-0.443-0.187-0.672
		c-0.083-0.635,0.141-1.005,0.749-1.206c0.357-0.119,0.732-0.206,1.104-0.267c2.113-0.329,4.143-0.976,6.182-1.595
		c0.975-0.296,1.953-0.604,2.947-0.831c1.358-0.305,2.67-0.122,3.893,0.574C153.238,82.785,153.656,83.146,154.151,83.58"/>
	<path fill="#FFFFFF" d="M198.355,73.464c-0.616,0.26-1.177,0.211-1.724,0.199c-1.257-0.031-2.511-0.077-3.768-0.123
		c-1.283-0.044-2.568-0.102-3.854-0.127c-0.401-0.008-0.813,0.052-1.212,0.119c-0.312,0.054-0.499,0.266-0.593,0.578
		c-0.119,0.396-0.135,0.797-0.104,1.212c0.104,1.309,0.216,2.621,0.251,3.932c0.017,0.755-0.112,1.513-0.181,2.271
		c-0.004,0.043-0.062,0.085-0.133,0.177c-0.112-0.057-0.245-0.1-0.355-0.177c-0.616-0.441-1.214-0.909-1.845-1.332
		c-0.556-0.376-0.81-0.9-0.893-1.534c-0.091-0.697-0.176-1.394-0.259-2.091c-0.185-1.477-0.364-2.955-0.543-4.436
		c-0.162-1.363,0.199-1.752,1.595-1.678c0.638,0.031,1.277,0.121,1.92,0.154c2.222,0.11,4.438,0,6.662-0.039
		c1.169-0.021,2.265,0.185,3.247,0.838c0.664,0.44,1.196,1.021,1.639,1.679C198.267,73.179,198.291,73.297,198.355,73.464"/>
	<path fill="#FFFFFF" d="M165.094,85.781c-0.167-0.042-0.316-0.046-0.435-0.111c-0.745-0.4-1.483-0.813-2.223-1.229
		c-0.293-0.165-0.491-0.42-0.603-0.727c-0.19-0.523-0.387-1.043-0.522-1.58c-0.451-1.782-0.877-3.571-1.314-5.362
		c-0.033-0.142-0.075-0.28-0.104-0.424c-0.127-0.614,0.077-1.219,1-1.34c0.637-0.083,1.281-0.114,1.924-0.127
		c1.466-0.024,2.908-0.272,4.354-0.477c0.957-0.129,1.903-0.313,2.858-0.442c1.277-0.169,2.508-0.027,3.631,0.669
		c0.622,0.386,1.157,0.87,1.616,1.517c-0.147,0.098-0.248,0.21-0.373,0.243c-0.308,0.083-0.624,0.154-0.944,0.186
		c-2.18,0.21-4.364,0.407-6.548,0.615c-0.638,0.063-1.275,0.146-1.916,0.231c-0.171,0.022-0.341,0.072-0.505,0.129
		c-0.581,0.191-0.757,0.418-0.751,1.023c0.002,0.26,0.042,0.524,0.094,0.779c0.227,1.176,0.505,2.347,0.687,3.526
		c0.125,0.833,0.123,1.687,0.169,2.53C165.194,85.517,165.136,85.629,165.094,85.781"/>
	<path fill="#FFFFFF" d="M59.37,240.863c0-2.689-0.955-4.986-2.86-6.893c-1.909-1.908-4.208-2.862-6.893-2.862
		c-2.689,0-4.986,0.954-6.893,2.862c-1.907,1.906-2.86,4.203-2.86,6.893v26.006h-9.755v-26.006c0-5.397,1.903-10.001,5.706-13.803
		c3.804-3.803,8.405-5.705,13.803-5.705c5.395,0,10,1.896,13.817,5.69c0.279,0.306,0.553,0.595,0.813,0.878
		c0.258-0.283,0.541-0.572,0.842-0.878c3.794-3.794,8.388-5.69,13.786-5.69c5.397,0,9.996,1.902,13.801,5.705
		c3.804,3.802,5.705,8.405,5.705,13.803v26.006h-9.752v-26.006c0-2.689-0.955-4.986-2.862-6.893
		c-1.905-1.908-4.204-2.862-6.891-2.862c-2.688,0-4.986,0.954-6.893,2.862c-1.907,1.906-2.86,4.203-2.86,6.893v26.006H59.37V240.863
		z"/>
	<path fill="#FFFFFF" d="M141.018,230.735c4.131,4.125,6.197,9.121,6.197,14.973c0,5.848-2.065,10.84-6.197,14.969
		c-4.126,4.129-9.118,6.192-14.969,6.192c-5.852,0-10.845-2.063-14.972-6.192c-4.129-4.129-6.194-9.121-6.194-14.969
		c0-5.852,2.065-10.848,6.194-14.973c4.126-4.129,9.12-6.194,14.972-6.194C131.9,224.541,136.892,226.606,141.018,230.735
		 M126.049,233.612c-3.338,0-6.19,1.182-8.553,3.542c-2.361,2.365-3.542,5.215-3.542,8.554c0,3.336,1.181,6.188,3.542,8.55
		c2.363,2.363,5.215,3.542,8.553,3.542c3.336,0,6.186-1.179,8.55-3.542c2.361-2.362,3.542-5.214,3.542-8.55
		c0-3.339-1.182-6.188-3.542-8.554C132.235,234.794,129.385,233.612,126.049,233.612"/>
	<polygon fill="#FFFFFF" points="162.69,250.223 162.69,266.869 153.619,266.869 153.619,224.541 162.69,224.541 162.69,241.154 
		183.853,241.154 183.853,224.541 192.924,224.541 192.924,266.869 183.853,266.869 183.853,250.223 	"/>
	<path fill="#FFFFFF" d="M208.466,257.8v9.069h-9.071v-24.187c0-5.022,1.766-9.308,5.3-12.842c3.534-3.533,7.814-5.3,12.842-5.3
		c5.03,0,9.31,1.767,12.844,5.3c3.531,3.534,5.299,7.819,5.299,12.842v24.187h-9.073V257.8H208.466z M226.607,248.729v-6.047
		c0-2.491-0.888-4.628-2.665-6.404s-3.912-2.666-6.406-2.666c-2.492,0-4.628,0.89-6.404,2.666c-1.778,1.776-2.666,3.913-2.666,6.404
		v6.047H226.607z"/>
	<path fill="#FFFFFF" d="M278.431,248.729c0,2.494,0.89,4.63,2.669,6.406c1.776,1.774,3.91,2.664,6.402,2.664
		c2.494,0,4.628-0.89,6.404-2.664c1.78-1.776,2.668-3.912,2.668-6.406v-24.188h9.071v24.188c0,5.03-1.766,9.311-5.3,12.844
		c-3.534,3.527-7.814,5.296-12.844,5.296c-5.023,0-9.307-1.769-12.837-5.296c-0.265-0.283-0.525-0.558-0.785-0.813
		c-0.235,0.256-0.486,0.53-0.746,0.813c-3.534,3.527-7.811,5.296-12.84,5.296s-9.31-1.769-12.841-5.296
		c-3.534-3.533-5.3-7.813-5.3-12.844v-24.188h9.07v24.188c0,2.494,0.888,4.63,2.665,6.406c1.779,1.774,3.915,2.664,6.406,2.664
		c2.494,0,4.628-0.89,6.404-2.664c1.779-1.776,2.667-3.912,2.667-6.406v-24.188h9.066V248.729z"/>
	<polygon fill="#FFFFFF" points="334.716,243.726 349.02,266.869 338.584,266.869 328.96,251.396 321.189,261.769 321.189,266.869 
		312.118,266.869 312.118,224.541 321.189,224.541 321.189,246.649 337.771,224.541 348.824,224.541 348.984,224.67 	"/>
	<polygon fill="#FFFFFF" points="23.32,308.405 10.12,308.405 10.12,285.313 22.871,285.313 22.646,287.667 14.58,287.768 
		14.58,295.28 22.169,295.381 21.968,297.513 14.58,297.686 14.58,305.951 23.523,306.131 	"/>
	<path fill="#FFFFFF" d="M37.472,303.323c0,0.871-0.179,1.584-0.537,2.142c-0.36,0.559-0.782,1.046-1.265,1.467
		c-0.252,0.218-0.518,0.433-0.803,0.65c-0.283,0.217-0.601,0.408-0.952,0.575c-0.352,0.168-0.749,0.303-1.202,0.4
		c-0.452,0.1-0.976,0.15-1.577,0.15c-1.087,0-2.076-0.113-2.97-0.338c-0.891-0.226-1.73-0.591-2.517-1.089l1.077-2.884
		c0.333,0.204,0.689,0.427,1.067,0.681c0.373,0.25,0.774,0.477,1.2,0.687c0.427,0.21,0.871,0.387,1.34,0.526
		c0.468,0.143,0.944,0.215,1.426,0.215c0.335,0,0.641-0.025,0.916-0.075c0.276-0.05,0.505-0.145,0.688-0.277
		c0.152-0.118,0.264-0.328,0.339-0.636c0.075-0.308,0.112-0.681,0.112-1.12c0-0.501-0.188-0.894-0.564-1.187
		c-0.374-0.292-0.846-0.55-1.414-0.763c-0.57-0.22-1.179-0.438-1.83-0.652c-0.649-0.219-1.261-0.506-1.826-0.866
		c-0.57-0.357-1.041-0.818-1.415-1.376c-0.376-0.56-0.566-1.301-0.566-2.217c0-0.6,0.186-1.198,0.551-1.789
		c0.368-0.595,0.768-1.084,1.202-1.466c0.535-0.49,1.127-0.848,1.781-1.08c0.648-0.231,1.401-0.352,2.252-0.352
		c0.718,0,1.477,0.043,2.28,0.126c0.8,0.084,1.554,0.178,2.254,0.275l-0.476,3.055c-0.35-0.113-0.73-0.229-1.14-0.345
		c-0.41-0.121-0.813-0.229-1.215-0.333c-0.399-0.093-0.791-0.176-1.165-0.235c-0.376-0.058-0.713-0.085-1.015-0.085
		c-0.385,0-0.677,0.017-0.876,0.061c-0.2,0.044-0.36,0.099-0.474,0.167c-0.102,0.06-0.181,0.205-0.241,0.426
		c-0.056,0.214-0.085,0.439-0.085,0.672c0,0.468,0.187,0.836,0.563,1.101c0.375,0.269,0.847,0.506,1.415,0.716
		s1.181,0.428,1.84,0.65c0.66,0.229,1.273,0.516,1.841,0.868c0.568,0.345,1.04,0.804,1.416,1.361
		C37.285,301.694,37.472,302.423,37.472,303.323"/>
	<path fill="#FFFFFF" d="M41.18,295.108l-1.654-0.551v-0.931l4.753-3.353h1.208l0.05,2.702h4.684l-0.197,1.703
		c-0.354,0.067-0.785,0.125-1.294,0.176c-0.51,0.054-0.997,0.093-1.464,0.124c-0.551,0.053-1.119,0.103-1.701,0.152v8.667
		c0,0.549,0.1,1.016,0.299,1.392c0.198,0.377,0.618,0.56,1.252,0.56c0.167,0,0.391-0.004,0.676-0.022
		c0.283-0.018,0.581-0.04,0.89-0.075c0.309-0.031,0.61-0.069,0.901-0.117c0.292-0.039,0.539-0.074,0.739-0.112v1.283
		c-0.366,0.233-0.793,0.471-1.277,0.713c-0.485,0.24-1,0.458-1.539,0.65c-0.543,0.19-1.092,0.348-1.643,0.461
		c-0.551,0.122-1.08,0.178-1.583,0.178c-0.387,0-0.765-0.035-1.134-0.113c-0.37-0.074-0.701-0.22-0.996-0.438
		c-0.293-0.215-0.528-0.521-0.705-0.911c-0.179-0.397-0.264-0.907-0.264-1.542V295.108z"/>
	<path fill="#FFFFFF" d="M57.587,292.977v10.347c0,0.916,0.148,1.599,0.443,2.042c0.295,0.442,0.794,0.663,1.504,0.663
		c0.251,0,0.53-0.037,0.834-0.112c0.304-0.076,0.615-0.176,0.933-0.299c0.321-0.127,0.629-0.27,0.924-0.427
		c0.295-0.16,0.569-0.331,0.821-0.514v-11.7h4.385v15.429h-3.934l-0.401-1.801h-0.05c-0.301,0.199-0.663,0.42-1.089,0.662
		c-0.424,0.24-0.884,0.478-1.377,0.7c-0.493,0.226-1.011,0.416-1.554,0.563c-0.542,0.152-1.073,0.225-1.589,0.225
		c-0.584,0-1.131-0.093-1.641-0.284c-0.509-0.193-0.955-0.477-1.339-0.854c-0.385-0.371-0.688-0.853-0.915-1.427
		c-0.227-0.573-0.339-1.237-0.339-1.99v-11.224H57.587z"/>
	<path fill="#FFFFFF" d="M81.758,292.954c0-0.233-0.008-0.458-0.025-0.681c-0.017-0.179-0.025-0.37-0.025-0.563v-0.487v-8.115
		l4.357-0.898v26.196h-2.98l-1.227-1.453h-0.075c-0.601,0.439-1.248,0.838-1.942,1.205c-0.693,0.367-1.49,0.551-2.393,0.551
		c-0.802,0-1.572-0.136-2.317-0.413c-0.742-0.277-1.397-0.713-1.965-1.315c-0.565-0.599-1.023-1.382-1.365-2.353
		c-0.341-0.97-0.516-2.146-0.516-3.534c0-1.318,0.168-2.5,0.505-3.543c0.333-1.046,0.817-1.925,1.456-2.641
		c0.634-0.718,1.404-1.271,2.309-1.655c0.903-0.381,1.924-0.578,3.064-0.578c0.468,0,0.974,0.026,1.518,0.076
		C80.683,292.802,81.222,292.873,81.758,292.954 M75.845,300.844c0,1.768,0.293,3.067,0.878,3.896
		c0.584,0.828,1.36,1.239,2.329,1.239c0.485,0,0.957-0.066,1.417-0.201c0.458-0.132,0.863-0.292,1.215-0.475v-10.073
		c-0.668-0.147-1.337-0.223-2.003-0.223c-0.62,0-1.166,0.051-1.631,0.151c-0.466,0.098-0.834,0.267-1.103,0.497
		c-0.25,0.254-0.497,0.813-0.736,1.682C75.968,298.203,75.845,299.375,75.845,300.844"/>
	<path fill="#FFFFFF" d="M93.102,284.234l2.781,2.881l-2.781,2.906l-2.753-2.906L93.102,284.234z M95.384,308.405H91v-15.429h4.384
		V308.405z"/>
	<path fill="#FFFFFF" d="M106.982,308.708c-2.506,0-4.422-0.683-5.749-2.041c-1.327-1.359-1.993-3.351-1.993-5.976
		c0-1.235,0.165-2.349,0.489-3.34c0.327-0.998,0.815-1.839,1.465-2.534c0.653-0.692,1.464-1.228,2.431-1.604
		c0.97-0.376,2.086-0.563,3.357-0.563c2.552,0,4.482,0.694,5.787,2.082c1.302,1.384,1.951,3.354,1.951,5.909
		c0,1.25-0.162,2.377-0.487,3.372c-0.327,0.994-0.815,1.834-1.464,2.527c-0.653,0.693-1.464,1.224-2.429,1.604
		C109.37,308.521,108.249,308.708,106.982,308.708 M103.8,300.669c0,2.017,0.241,3.506,0.726,4.455
		c0.485,0.954,1.296,1.427,2.432,1.427c0.435,0,0.84-0.035,1.225-0.107c0.385-0.08,0.703-0.188,0.956-0.34
		c0.164-0.081,0.309-0.287,0.437-0.613c0.126-0.327,0.233-0.73,0.324-1.213c0.094-0.486,0.158-1.042,0.202-1.656
		c0.042-0.619,0.061-1.26,0.061-1.93c0-1.972-0.246-3.444-0.739-4.42c-0.491-0.976-1.29-1.467-2.39-1.467
		c-0.418,0-0.828,0.044-1.229,0.125c-0.402,0.088-0.749,0.219-1.05,0.406c-0.168,0.093-0.314,0.305-0.439,0.623
		c-0.125,0.319-0.227,0.72-0.301,1.203c-0.075,0.484-0.13,1.027-0.163,1.628C103.814,299.394,103.8,300.016,103.8,300.669"/>
	<path fill="#FFFFFF" d="M134.633,292.954c0-0.233-0.009-0.458-0.023-0.681c-0.019-0.179-0.027-0.37-0.027-0.563v-0.487v-8.115
		l4.36-0.898v26.196h-2.981l-1.227-1.453h-0.077c-0.599,0.439-1.248,0.838-1.941,1.205c-0.692,0.367-1.489,0.551-2.392,0.551
		c-0.801,0-1.575-0.136-2.319-0.413c-0.742-0.277-1.398-0.713-1.963-1.315c-0.568-0.599-1.024-1.382-1.367-2.353
		c-0.341-0.97-0.514-2.146-0.514-3.534c0-1.318,0.167-2.5,0.504-3.543c0.333-1.046,0.819-1.925,1.458-2.641
		c0.635-0.718,1.404-1.271,2.309-1.655c0.903-0.381,1.926-0.578,3.062-0.578c0.47,0,0.975,0.026,1.52,0.076
		C133.558,292.802,134.097,292.873,134.633,292.954 M128.722,300.844c0,1.768,0.293,3.067,0.878,3.896s1.36,1.239,2.327,1.239
		c0.485,0,0.957-0.066,1.418-0.201c0.458-0.132,0.864-0.292,1.215-0.475v-10.073c-0.67-0.147-1.338-0.223-2.005-0.223
		c-0.618,0-1.161,0.051-1.627,0.151c-0.469,0.098-0.836,0.267-1.102,0.497c-0.251,0.254-0.499,0.813-0.741,1.682
		C128.844,298.203,128.722,299.375,128.722,300.844"/>
	<path fill="#FFFFFF" d="M150.389,292.65c0.734,0,1.447,0.105,2.143,0.316c0.693,0.21,1.331,0.56,1.916,1.05
		c0.584,0.493,1.09,1.152,1.516,1.979c0.425,0.827,0.747,1.857,0.963,3.095v0.198c-0.133,0.186-0.312,0.353-0.538,0.505
		c-0.225,0.147-0.522,0.276-0.888,0.387c-0.369,0.108-0.818,0.208-1.352,0.3c-0.537,0.093-1.18,0.162-1.93,0.212l-4.861,0.376v0.652
		c0,1.201,0.32,2.195,0.955,2.982c0.634,0.783,1.584,1.177,2.855,1.177c0.516,0,1.059-0.054,1.626-0.164
		c0.568-0.104,1.107-0.237,1.614-0.387c0.51-0.152,0.98-0.309,1.404-0.464c0.428-0.162,0.747-0.295,0.965-0.412l0.376,1.123
		c-0.469,0.351-0.994,0.716-1.579,1.092c-0.584,0.377-1.21,0.712-1.878,1.015c-0.667,0.296-1.375,0.546-2.118,0.738
		c-0.742,0.192-1.506,0.288-2.292,0.288c-0.917,0-1.774-0.136-2.567-0.413s-1.477-0.713-2.053-1.315
		c-0.577-0.599-1.032-1.386-1.367-2.353c-0.334-0.97-0.5-2.146-0.5-3.534c0-1.552,0.191-2.865,0.576-3.943
		c0.383-1.079,0.919-1.944,1.604-2.604c0.685-0.657,1.491-1.144,2.417-1.443C148.323,292.802,149.319,292.65,150.389,292.65
		 M148.311,295.256c-0.117,0.1-0.231,0.292-0.337,0.564c-0.11,0.276-0.206,0.604-0.289,0.979c-0.083,0.374-0.152,0.765-0.202,1.175
		c-0.05,0.408-0.075,0.804-0.075,1.19l4.834-0.223c-0.05-0.454-0.125-0.92-0.225-1.408c-0.102-0.479-0.248-0.923-0.439-1.325
		c-0.191-0.401-0.43-0.733-0.713-1.004c-0.285-0.268-0.626-0.4-1.027-0.4c-0.285,0-0.551,0.035-0.801,0.104
		C148.785,294.97,148.543,295.09,148.311,295.256"/>
	<path fill="#FFFFFF" d="M176.815,292.954c0-0.233-0.008-0.458-0.025-0.681c-0.017-0.179-0.025-0.37-0.025-0.563v-0.487v-8.115
		l4.357-0.898v26.196h-2.98l-1.225-1.453h-0.077c-0.601,0.439-1.248,0.838-1.94,1.205s-1.491,0.551-2.392,0.551
		c-0.801,0-1.575-0.136-2.317-0.413c-0.745-0.277-1.398-0.713-1.968-1.315c-0.566-0.599-1.021-1.382-1.365-2.353
		c-0.341-0.97-0.514-2.146-0.514-3.534c0-1.318,0.168-2.5,0.503-3.543c0.333-1.046,0.819-1.925,1.456-2.641
		c0.634-0.718,1.406-1.271,2.311-1.655c0.902-0.381,1.924-0.578,3.064-0.578c0.468,0,0.973,0.026,1.516,0.076
		C175.739,292.802,176.278,292.873,176.815,292.954 M170.903,300.844c0,1.768,0.293,3.067,0.878,3.896
		c0.582,0.828,1.36,1.239,2.33,1.239c0.484,0,0.955-0.066,1.416-0.201c0.458-0.132,0.863-0.292,1.213-0.475v-10.073
		c-0.668-0.147-1.336-0.223-2.004-0.223c-0.617,0-1.162,0.051-1.628,0.151c-0.468,0.098-0.834,0.267-1.103,0.497
		c-0.25,0.254-0.497,0.813-0.738,1.682C171.024,298.203,170.903,299.375,170.903,300.844"/>
	<path fill="#FFFFFF" d="M188.161,284.234l2.781,2.881l-2.781,2.906l-2.754-2.906L188.161,284.234z M190.443,308.405h-4.385v-15.429
		h4.385V308.405z"/>
	<path fill="#FFFFFF" d="M205.797,303.323c0,0.871-0.181,1.584-0.543,2.142c-0.358,0.559-0.776,1.046-1.26,1.467
		c-0.254,0.218-0.52,0.433-0.803,0.65c-0.285,0.217-0.603,0.408-0.953,0.575c-0.352,0.168-0.75,0.303-1.204,0.4
		c-0.448,0.1-0.974,0.15-1.575,0.15c-1.086,0-2.076-0.113-2.968-0.338c-0.892-0.226-1.733-0.591-2.519-1.089l1.077-2.884
		c0.335,0.204,0.688,0.427,1.065,0.681c0.376,0.25,0.776,0.477,1.202,0.687s0.872,0.387,1.342,0.526
		c0.465,0.143,0.942,0.215,1.427,0.215c0.331,0,0.639-0.025,0.913-0.075c0.275-0.05,0.506-0.145,0.691-0.277
		c0.147-0.118,0.259-0.328,0.334-0.636c0.077-0.308,0.112-0.681,0.112-1.12c0-0.501-0.188-0.894-0.564-1.187
		c-0.372-0.292-0.844-0.55-1.412-0.763c-0.57-0.22-1.177-0.438-1.828-0.652c-0.653-0.219-1.263-0.506-1.83-0.866
		c-0.568-0.357-1.038-0.818-1.413-1.376c-0.376-0.56-0.563-1.301-0.563-2.217c0-0.6,0.183-1.198,0.549-1.789
		c0.368-0.595,0.77-1.084,1.202-1.466c0.535-0.49,1.127-0.848,1.779-1.08c0.653-0.231,1.404-0.352,2.252-0.352
		c0.72,0,1.479,0.043,2.28,0.126c0.803,0.084,1.553,0.178,2.254,0.275l-0.472,3.055c-0.352-0.113-0.734-0.229-1.142-0.345
		c-0.41-0.121-0.813-0.229-1.214-0.333c-0.399-0.093-0.791-0.176-1.167-0.235c-0.376-0.058-0.711-0.085-1.015-0.085
		c-0.383,0-0.677,0.017-0.874,0.061c-0.198,0.044-0.358,0.099-0.479,0.167c-0.1,0.06-0.179,0.205-0.237,0.426
		c-0.058,0.214-0.087,0.439-0.087,0.672c0,0.468,0.19,0.836,0.564,1.101c0.376,0.269,0.847,0.506,1.417,0.716
		c0.568,0.21,1.182,0.428,1.838,0.65c0.662,0.229,1.275,0.516,1.843,0.868c0.568,0.345,1.041,0.804,1.417,1.361
		C205.607,301.694,205.797,302.423,205.797,303.323"/>
	<path fill="#FFFFFF" d="M215.864,292.65c0.739,0,1.45,0.105,2.143,0.316c0.695,0.21,1.329,0.56,1.92,1.05
		c0.58,0.493,1.086,1.152,1.512,1.979c0.427,0.827,0.747,1.857,0.965,3.095v0.198c-0.133,0.186-0.314,0.353-0.539,0.505
		c-0.225,0.147-0.524,0.276-0.888,0.387c-0.371,0.108-0.821,0.208-1.354,0.3c-0.537,0.093-1.175,0.162-1.93,0.212l-4.859,0.376
		v0.652c0,1.201,0.316,2.195,0.955,2.982c0.632,0.783,1.585,1.177,2.854,1.177c0.516,0,1.061-0.054,1.629-0.164
		c0.568-0.104,1.104-0.237,1.614-0.387c0.51-0.152,0.979-0.309,1.402-0.464c0.426-0.162,0.747-0.295,0.965-0.412l0.376,1.123
		c-0.466,0.351-0.994,0.716-1.577,1.092c-0.584,0.377-1.215,0.712-1.882,1.015c-0.666,0.296-1.373,0.546-2.115,0.738
		c-0.742,0.192-1.508,0.288-2.29,0.288c-0.919,0-1.774-0.136-2.571-0.413c-0.788-0.277-1.476-0.713-2.05-1.315
		c-0.574-0.599-1.03-1.386-1.365-2.353c-0.336-0.97-0.503-2.146-0.503-3.534c0-1.552,0.191-2.865,0.578-3.943
		c0.383-1.079,0.917-1.944,1.604-2.604c0.684-0.657,1.49-1.144,2.417-1.443C213.798,292.802,214.795,292.65,215.864,292.65
		 M213.788,295.256c-0.116,0.1-0.231,0.292-0.339,0.564c-0.11,0.276-0.204,0.604-0.291,0.979c-0.083,0.374-0.148,0.765-0.198,1.175
		c-0.052,0.408-0.075,0.804-0.075,1.19l4.836-0.223c-0.054-0.454-0.126-0.92-0.229-1.408c-0.1-0.479-0.246-0.923-0.439-1.325
		c-0.191-0.401-0.431-0.733-0.711-1.004c-0.283-0.268-0.626-0.4-1.028-0.4c-0.285,0-0.551,0.035-0.801,0.104
		C214.26,294.97,214.017,295.09,213.788,295.256"/>
	<path fill="#FFFFFF" d="M236.081,308.405v-10.343c0-0.918-0.149-1.594-0.443-2.029c-0.292-0.433-0.786-0.652-1.487-0.652
		c-0.254,0-0.53,0.037-0.842,0.103c-0.308,0.064-0.618,0.157-0.925,0.289c-0.31,0.123-0.614,0.264-0.913,0.426
		c-0.3,0.155-0.578,0.328-0.828,0.508v11.699h-4.382v-15.429h3.906l0.401,1.806h0.05c0.3-0.202,0.666-0.422,1.088-0.665
		c0.431-0.246,0.892-0.473,1.39-0.688c0.503-0.215,1.023-0.402,1.555-0.552c0.533-0.151,1.061-0.227,1.583-0.227
		c0.58,0,1.129,0.098,1.635,0.289c0.513,0.191,0.957,0.475,1.344,0.854c0.383,0.375,0.686,0.847,0.908,1.411
		c0.229,0.571,0.341,1.239,0.341,2.004v11.196H236.081z M231.019,288.595c-0.318,0-0.574,0.043-0.778,0.137
		c-0.198,0.094-0.364,0.219-0.487,0.379c-0.126,0.155-0.224,0.336-0.289,0.536c-0.065,0.202-0.125,0.399-0.173,0.6l-1.279-0.3
		c0.103-0.582,0.237-1.121,0.417-1.613c0.172-0.493,0.393-0.916,0.662-1.268c0.268-0.352,0.574-0.624,0.927-0.826
		c0.352-0.198,0.74-0.299,1.177-0.299c0.416,0,0.847,0.094,1.29,0.272c0.443,0.186,0.872,0.384,1.29,0.591
		c0.416,0.21,0.813,0.403,1.189,0.589c0.375,0.183,0.716,0.274,1.016,0.274c0.299,0,0.555-0.055,0.766-0.16
		c0.206-0.109,0.374-0.248,0.499-0.417c0.125-0.166,0.22-0.345,0.287-0.54c0.066-0.188,0.129-0.368,0.179-0.534l1.3,0.278
		c-0.185,1.179-0.549,2.148-1.103,2.901c-0.551,0.751-1.266,1.129-2.153,1.129c-0.47,0-0.917-0.095-1.341-0.278
		c-0.425-0.179-0.836-0.38-1.227-0.587c-0.394-0.208-0.771-0.407-1.142-0.591C231.676,288.686,231.336,288.595,231.019,288.595"/>
	<path fill="#FFFFFF" d="M251.96,308.708c-2.507,0-4.422-0.683-5.747-2.041c-1.329-1.359-1.995-3.351-1.995-5.976
		c0-1.235,0.166-2.349,0.49-3.34c0.327-0.998,0.814-1.839,1.465-2.534c0.653-0.692,1.462-1.228,2.432-1.604
		c0.967-0.376,2.088-0.563,3.355-0.563c2.554,0,4.482,0.694,5.788,2.082c1.3,1.384,1.954,3.354,1.954,5.909
		c0,1.25-0.165,2.377-0.491,3.372c-0.327,0.994-0.813,1.834-1.462,2.527c-0.655,0.693-1.464,1.224-2.433,1.604
		C254.348,308.521,253.229,308.708,251.96,308.708 M248.777,300.669c0,2.017,0.243,3.506,0.726,4.455
		c0.489,0.954,1.298,1.427,2.432,1.427c0.433,0,0.842-0.035,1.229-0.107c0.382-0.08,0.701-0.188,0.949-0.34
		c0.168-0.081,0.315-0.287,0.44-0.613c0.123-0.327,0.233-0.73,0.327-1.213c0.09-0.486,0.158-1.042,0.198-1.656
		c0.043-0.619,0.062-1.26,0.062-1.93c0-1.972-0.245-3.444-0.738-4.42c-0.491-0.976-1.288-1.467-2.392-1.467
		c-0.418,0-0.828,0.044-1.227,0.125c-0.401,0.088-0.751,0.219-1.051,0.406c-0.17,0.093-0.316,0.305-0.441,0.623
		c-0.123,0.319-0.225,0.72-0.302,1.203c-0.07,0.484-0.125,1.027-0.16,1.628C248.796,299.394,248.777,300.016,248.777,300.669"/>
	<path fill="#FFFFFF" d="M274.375,319.155c-1.019,0-1.882-0.093-2.592-0.278c-0.711-0.184-1.283-0.43-1.728-0.74
		c-0.441-0.307-0.759-0.66-0.951-1.061c-0.191-0.402-0.288-0.833-0.288-1.28c0-0.801,0.265-1.472,0.801-2.018
		c0.532-0.54,1.236-1.046,2.107-1.516l1.023,0.278c-0.085,0.332-0.148,0.628-0.188,0.888c-0.043,0.256-0.065,0.556-0.065,0.896
		c0,0.693,0.24,1.256,0.714,1.674c0.479,0.416,1.184,0.626,2.12,0.626c0.433,0,0.863-0.027,1.289-0.073
		c0.425-0.053,0.836-0.12,1.238-0.202c0.401-0.086,0.773-0.181,1.117-0.288c0.344-0.108,0.628-0.229,0.863-0.366
		c0.337-0.197,0.55-0.497,0.641-0.899c0.09-0.4,0.135-0.886,0.135-1.451c0-1.14-1.149-1.707-3.456-1.707l-2.457-0.023
		c-1.733-0.014-2.997-0.271-3.792-0.764c-0.796-0.488-1.189-1.333-1.189-2.518c0-0.382,0.083-0.766,0.25-1.15
		c0.166-0.386,0.38-0.751,0.638-1.104c0.261-0.351,0.543-0.676,0.854-0.976c0.307-0.301,0.595-0.578,0.863-0.825
		c-0.434-0.203-0.854-0.474-1.254-0.818c-0.401-0.338-0.751-0.741-1.052-1.188c-0.3-0.452-0.537-0.961-0.713-1.526
		c-0.175-0.568-0.265-1.186-0.265-1.854c0-0.986,0.173-1.864,0.516-2.632c0.339-0.769,0.813-1.419,1.417-1.954
		c0.599-0.533,1.308-0.94,2.128-1.226c0.816-0.288,1.701-0.429,2.653-0.429c0.803,0,1.513,0.043,2.131,0.126
		c0.618,0.084,1.216,0.217,1.805,0.402c0.785-0.037,1.621-0.096,2.515-0.189c0.89-0.094,1.675-0.201,2.344-0.339l-0.353,2.007
		c-0.316,0.115-0.734,0.208-1.251,0.272c-0.518,0.068-0.978,0.103-1.38,0.103c0.185,0.333,0.392,0.804,0.614,1.414
		c0.229,0.611,0.341,1.387,0.341,2.344c0,0.968-0.166,1.826-0.501,2.577s-0.797,1.386-1.388,1.895
		c-0.596,0.506-1.302,0.896-2.119,1.163c-0.82,0.267-1.712,0.399-2.679,0.399c-0.152,0-0.331-0.004-0.528-0.01
		c-0.198-0.009-0.401-0.018-0.603-0.025c-0.198-0.007-0.385-0.024-0.56-0.05c-0.176-0.027-0.324-0.055-0.44-0.087
		c-0.096,0.185-0.206,0.426-0.325,0.735c-0.116,0.313-0.172,0.616-0.172,0.918c0,0.365,0.169,0.611,0.512,0.738
		c0.341,0.122,0.965,0.188,1.864,0.188h3.456c1.053,0,1.941,0.083,2.656,0.248c0.72,0.172,1.301,0.432,1.741,0.791
		c0.445,0.357,0.755,0.808,0.938,1.353c0.185,0.541,0.277,1.189,0.277,1.939c0,0.901-0.254,1.809-0.765,2.717
		c-0.509,0.913-1.224,1.727-2.142,2.446c-0.918,0.716-2.005,1.299-3.253,1.749C277.231,318.927,275.863,319.155,274.375,319.155
		 M275.881,302.773c0.383,0,0.71-0.037,0.976-0.103c0.268-0.063,0.51-0.163,0.728-0.303c0.214-0.133,0.397-0.522,0.536-1.174
		c0.142-0.655,0.214-1.479,0.214-2.481c0-0.567-0.052-1.091-0.147-1.574c-0.102-0.489-0.262-0.907-0.478-1.269
		c-0.217-0.357-0.479-0.641-0.791-0.838c-0.308-0.204-0.68-0.3-1.115-0.3c-0.349,0-0.648,0.025-0.902,0.085
		c-0.248,0.059-0.49,0.162-0.727,0.314c-0.233,0.148-0.418,0.543-0.548,1.18c-0.133,0.632-0.202,1.466-0.202,2.502
		c0,0.537,0.054,1.038,0.162,1.514c0.11,0.48,0.265,0.9,0.468,1.268c0.197,0.37,0.452,0.655,0.761,0.865
		C275.124,302.668,275.481,302.773,275.881,302.773"/>
	<path fill="#FFFFFF" d="M296.693,296.459c-0.332-0.117-0.69-0.215-1.077-0.285c-0.383-0.077-0.751-0.117-1.103-0.117
		c-0.249,0-0.472,0.023-0.674,0.067c-0.198,0.039-0.391,0.112-0.563,0.212c-0.175,0.098-0.35,0.23-0.528,0.401
		c-0.173,0.164-0.372,0.369-0.585,0.6v11.068h-4.384v-15.429h3.931l0.376,2.452h0.027c0.114-0.181,0.256-0.393,0.423-0.636
		c0.17-0.241,0.35-0.485,0.542-0.727c0.191-0.241,0.389-0.465,0.599-0.665c0.211-0.202,0.423-0.342,0.64-0.425
		c0.383-0.131,0.815-0.221,1.3-0.26c0.489-0.046,1.013-0.066,1.578-0.066L296.693,296.459z"/>
	<path fill="#FFFFFF" d="M312.775,306.131c0.368,0,0.874-0.096,1.526-0.277v1.051c-0.232,0.218-0.507,0.433-0.823,0.638
		c-0.32,0.209-0.657,0.395-1.017,0.553c-0.357,0.16-0.729,0.285-1.112,0.376c-0.388,0.089-0.764,0.137-1.128,0.137
		c-0.401,0-0.744-0.058-1.028-0.175c-0.282-0.118-0.528-0.264-0.738-0.438s-0.383-0.38-0.528-0.615
		c-0.141-0.229-0.262-0.458-0.36-0.673c-0.367,0.246-0.732,0.495-1.091,0.738c-0.357,0.242-0.734,0.456-1.128,0.64
		c-0.388,0.181-0.805,0.333-1.239,0.446c-0.433,0.122-0.917,0.178-1.45,0.178c-1.203,0-2.149-0.376-2.843-1.126
		c-0.694-0.751-1.042-1.891-1.042-3.407c0-0.801,0.106-1.504,0.313-2.106c0.21-0.599,0.54-1.094,1-1.489
		c0.458-0.393,1.049-0.692,1.771-0.903c0.725-0.207,1.613-0.325,2.661-0.359l2.647-0.075v-2.244c0-0.606-0.162-1.052-0.49-1.337
		c-0.322-0.287-0.88-0.431-1.663-0.431c-0.553,0-1.191,0.068-1.919,0.199c-0.726,0.138-1.487,0.364-2.29,0.678l-0.603-1.597
		c0.533-0.229,1.091-0.458,1.666-0.681c0.578-0.22,1.161-0.42,1.755-0.595c0.593-0.175,1.192-0.315,1.801-0.42
		c0.61-0.108,1.218-0.164,1.82-0.164c0.684,0,1.297,0.066,1.839,0.188c0.536,0.129,0.983,0.341,1.346,0.641
		c0.361,0.299,0.637,0.701,0.832,1.201c0.189,0.504,0.287,1.118,0.287,1.856v7.115C311.547,305.303,311.958,306.131,312.775,306.131
		 M307.339,305.402c-0.015-0.064-0.032-0.239-0.045-0.512c-0.02-0.278-0.037-0.631-0.051-1.054
		c-0.021-0.425-0.031-0.909-0.039-1.454c-0.009-0.541-0.013-1.115-0.013-1.714c-1.073,0-1.879,0.063-2.426,0.188
		c-0.544,0.126-0.879,0.28-1.011,0.461c-0.066,0.068-0.121,0.195-0.162,0.377c-0.039,0.183-0.071,0.384-0.098,0.611
		c-0.024,0.229-0.044,0.46-0.05,0.703c-0.009,0.24-0.011,0.466-0.011,0.665c0,0.698,0.094,1.271,0.281,1.704
		c0.19,0.435,0.509,0.65,0.952,0.65c0.479,0,0.938-0.058,1.37-0.175C306.48,305.74,306.908,305.583,307.339,305.402 M308.39,283.234
		l2.259,2.279l-5.636,4.908l-1.401-1.431L308.39,283.234z"/>
	<path fill="#FFFFFF" d="M325.95,285.514c-0.383-0.083-0.815-0.171-1.289-0.263c-0.475-0.093-0.903-0.139-1.29-0.139
		c-0.266,0-0.545,0.021-0.838,0.065c-0.291,0.043-0.524,0.15-0.691,0.336c-0.082,0.1-0.157,0.318-0.222,0.649
		c-0.068,0.336-0.125,0.74-0.163,1.212c-0.043,0.482-0.075,1.003-0.091,1.571c-0.015,0.565-0.021,1.144-0.021,1.726v2.305h3.88
		L325,294.805c-0.418,0.032-0.845,0.071-1.277,0.125c-0.366,0.033-0.763,0.066-1.189,0.098c-0.427,0.038-0.824,0.073-1.188,0.104
		v13.273h-4.386v-13.273c-0.133,0-0.335-0.002-0.604-0.011c-0.265-0.011-0.541-0.013-0.823-0.013h-1.003l0.202-1.259
		c0.318-0.113,0.618-0.211,0.898-0.299c0.235-0.084,0.476-0.164,0.726-0.239c0.253-0.077,0.451-0.123,0.604-0.135v-2.813
		c0-0.971,0.214-1.919,0.641-2.837c0.424-0.921,0.978-1.743,1.663-2.473c0.686-0.727,1.463-1.311,2.33-1.758
		c0.867-0.438,1.745-0.663,2.631-0.663c0.366,0,0.78,0.022,1.238,0.063c0.459,0.04,0.863,0.087,1.216,0.137L325.95,285.514z"/>
	<path fill="#FFFFFF" d="M330.136,284.234l2.778,2.881l-2.778,2.906l-2.759-2.906L330.136,284.234z M332.412,308.405h-4.38v-15.429
		h4.38V308.405z"/>
	<path fill="#FFFFFF" d="M348.318,296.281c-0.552-0.282-1.205-0.555-1.968-0.823c-0.756-0.268-1.579-0.4-2.465-0.4
		c-0.368,0-0.736,0.035-1.101,0.113c-0.368,0.072-0.686,0.21-0.954,0.412c-0.3,0.223-0.54,0.733-0.726,1.548
		s-0.274,2.084-0.274,3.814c0,0.957,0.065,1.768,0.2,2.429c0.13,0.665,0.333,1.198,0.6,1.61c0.269,0.411,0.599,0.703,1.003,0.882
		c0.401,0.175,0.859,0.265,1.377,0.265c0.82,0,1.668-0.09,2.557-0.261c0.884-0.179,1.687-0.415,2.402-0.72l0.399,1.128
		c-0.848,0.692-1.825,1.275-2.912,1.736c-1.096,0.46-2.294,0.693-3.597,0.693c-0.921,0-1.784-0.136-2.594-0.413
		s-1.505-0.713-2.093-1.315c-0.582-0.599-1.046-1.386-1.391-2.353c-0.338-0.97-0.513-2.146-0.513-3.534
		c0-1.318,0.182-2.5,0.54-3.543c0.357-1.046,0.881-1.93,1.563-2.655c0.686-0.726,1.539-1.283,2.558-1.663
		c1.018-0.386,2.185-0.581,3.504-0.581c0.802,0,1.607,0.059,2.417,0.175c0.813,0.118,1.549,0.249,2.217,0.396L348.318,296.281z"/>
	<path fill="#FFFFFF" d="M359.139,308.708c-2.501,0-4.418-0.683-5.748-2.041c-1.324-1.359-1.989-3.351-1.989-5.976
		c0-1.235,0.162-2.349,0.485-3.34c0.327-0.998,0.813-1.839,1.468-2.534c0.653-0.692,1.459-1.228,2.43-1.604s2.087-0.563,3.354-0.563
		c2.558,0,4.484,0.694,5.79,2.082c1.298,1.384,1.951,3.354,1.951,5.909c0,1.25-0.162,2.377-0.487,3.372
		c-0.326,0.994-0.816,1.834-1.464,2.527c-0.653,0.693-1.462,1.224-2.432,1.604C361.526,308.521,360.409,308.708,359.139,308.708
		 M355.956,300.669c0,2.017,0.246,3.506,0.729,4.455c0.482,0.954,1.298,1.427,2.428,1.427c0.437,0,0.847-0.035,1.227-0.107
		c0.386-0.08,0.706-0.188,0.956-0.34c0.165-0.081,0.313-0.287,0.436-0.613c0.127-0.327,0.235-0.73,0.327-1.213
		c0.093-0.486,0.155-1.042,0.202-1.656c0.039-0.619,0.061-1.26,0.061-1.93c0-1.972-0.247-3.444-0.741-4.42
		c-0.491-0.976-1.285-1.467-2.388-1.467c-0.418,0-0.83,0.044-1.227,0.125c-0.406,0.088-0.751,0.219-1.056,0.406
		c-0.166,0.093-0.313,0.305-0.438,0.623c-0.125,0.319-0.223,0.72-0.3,1.203c-0.074,0.484-0.128,1.027-0.166,1.628
		C355.975,299.394,355.956,300.016,355.956,300.669"/>
</g>
</svg>
